<svg width="1440" height="584" viewBox="0 0 1440 584" fill="none" xmlns="http://www.w3.org/2000/svg">
<rect width="1440" height="584" fill="url(#paint0_linear_12_3)"/>
<path d="M287.182 300V206.909H322.818C329.545 206.909 335.136 207.97 339.591 210.091C344.076 212.182 347.424 215.045 349.636 218.682C351.879 222.318 353 226.439 353 231.045C353 234.833 352.273 238.076 350.818 240.773C349.364 243.439 347.409 245.606 344.955 247.273C342.5 248.939 339.758 250.136 336.727 250.864V251.773C340.03 251.955 343.197 252.97 346.227 254.818C349.288 256.636 351.788 259.212 353.727 262.545C355.667 265.879 356.636 269.909 356.636 274.636C356.636 279.455 355.47 283.788 353.136 287.636C350.803 291.455 347.288 294.47 342.591 296.682C337.894 298.894 331.985 300 324.864 300H287.182ZM304.045 285.909H322.182C328.303 285.909 332.712 284.742 335.409 282.409C338.136 280.045 339.5 277.015 339.5 273.318C339.5 270.561 338.818 268.076 337.455 265.864C336.091 263.621 334.152 261.864 331.636 260.591C329.121 259.288 326.121 258.636 322.636 258.636H304.045V285.909ZM304.045 246.5H320.727C323.636 246.5 326.258 245.97 328.591 244.909C330.924 243.818 332.758 242.288 334.091 240.318C335.455 238.318 336.136 235.955 336.136 233.227C336.136 229.621 334.864 226.652 332.318 224.318C329.803 221.985 326.061 220.818 321.091 220.818H304.045V246.5ZM387.034 206.909V300H370.58V206.909H387.034ZM434.409 301.364C427.591 301.364 421.682 299.864 416.682 296.864C411.682 293.864 407.803 289.667 405.045 284.273C402.318 278.879 400.955 272.576 400.955 265.364C400.955 258.152 402.318 251.833 405.045 246.409C407.803 240.985 411.682 236.773 416.682 233.773C421.682 230.773 427.591 229.273 434.409 229.273C441.227 229.273 447.136 230.773 452.136 233.773C457.136 236.773 461 240.985 463.727 246.409C466.485 251.833 467.864 258.152 467.864 265.364C467.864 272.576 466.485 278.879 463.727 284.273C461 289.667 457.136 293.864 452.136 296.864C447.136 299.864 441.227 301.364 434.409 301.364ZM434.5 288.182C438.197 288.182 441.288 287.167 443.773 285.136C446.258 283.076 448.106 280.318 449.318 276.864C450.561 273.409 451.182 269.561 451.182 265.318C451.182 261.045 450.561 257.182 449.318 253.727C448.106 250.242 446.258 247.47 443.773 245.409C441.288 243.348 438.197 242.318 434.5 242.318C430.712 242.318 427.561 243.348 425.045 245.409C422.561 247.47 420.697 250.242 419.455 253.727C418.242 257.182 417.636 261.045 417.636 265.318C417.636 269.561 418.242 273.409 419.455 276.864C420.697 280.318 422.561 283.076 425.045 285.136C427.561 287.167 430.712 288.182 434.5 288.182ZM512.193 327.636C506.284 327.636 501.208 326.833 496.966 325.227C492.723 323.652 489.314 321.53 486.739 318.864C484.163 316.197 482.375 313.242 481.375 310L496.193 306.409C496.86 307.773 497.83 309.121 499.102 310.455C500.375 311.818 502.087 312.939 504.239 313.818C506.42 314.727 509.163 315.182 512.466 315.182C517.133 315.182 520.996 314.045 524.057 311.773C527.117 309.53 528.648 305.833 528.648 300.682V287.455H527.83C526.981 289.152 525.739 290.894 524.102 292.682C522.496 294.47 520.36 295.97 517.693 297.182C515.057 298.394 511.739 299 507.739 299C502.375 299 497.511 297.742 493.148 295.227C488.814 292.682 485.36 288.894 482.784 283.864C480.239 278.803 478.966 272.47 478.966 264.864C478.966 257.197 480.239 250.727 482.784 245.455C485.36 240.152 488.83 236.136 493.193 233.409C497.557 230.652 502.42 229.273 507.784 229.273C511.875 229.273 515.239 229.97 517.875 231.364C520.542 232.727 522.663 234.379 524.239 236.318C525.814 238.227 527.011 240.03 527.83 241.727H528.739V230.182H544.966V301.136C544.966 307.106 543.542 312.045 540.693 315.955C537.845 319.864 533.951 322.788 529.011 324.727C524.072 326.667 518.466 327.636 512.193 327.636ZM512.33 286.091C515.814 286.091 518.784 285.242 521.239 283.545C523.693 281.848 525.557 279.409 526.83 276.227C528.102 273.045 528.739 269.227 528.739 264.773C528.739 260.379 528.102 256.53 526.83 253.227C525.587 249.924 523.739 247.364 521.284 245.545C518.86 243.697 515.875 242.773 512.33 242.773C508.663 242.773 505.602 243.727 503.148 245.636C500.693 247.545 498.845 250.167 497.602 253.5C496.36 256.803 495.739 260.561 495.739 264.773C495.739 269.045 496.36 272.788 497.602 276C498.875 279.182 500.739 281.667 503.193 283.455C505.678 285.212 508.723 286.091 512.33 286.091ZM617.011 248.636L602.011 250.273C601.587 248.758 600.845 247.333 599.784 246C598.754 244.667 597.36 243.591 595.602 242.773C593.845 241.955 591.693 241.545 589.148 241.545C585.723 241.545 582.845 242.288 580.511 243.773C578.208 245.258 577.072 247.182 577.102 249.545C577.072 251.576 577.814 253.227 579.33 254.5C580.875 255.773 583.42 256.818 586.966 257.636L598.875 260.182C605.481 261.606 610.39 263.864 613.602 266.955C616.845 270.045 618.481 274.091 618.511 279.091C618.481 283.485 617.193 287.364 614.648 290.727C612.133 294.061 608.633 296.667 604.148 298.545C599.663 300.424 594.511 301.364 588.693 301.364C580.148 301.364 573.269 299.576 568.057 296C562.845 292.394 559.739 287.379 558.739 280.955L574.784 279.409C575.511 282.561 577.057 284.939 579.42 286.545C581.784 288.152 584.86 288.955 588.648 288.955C592.557 288.955 595.693 288.152 598.057 286.545C600.451 284.939 601.648 282.955 601.648 280.591C601.648 278.591 600.875 276.939 599.33 275.636C597.814 274.333 595.451 273.333 592.239 272.636L580.33 270.136C573.633 268.742 568.678 266.394 565.466 263.091C562.254 259.758 560.663 255.545 560.693 250.455C560.663 246.152 561.83 242.424 564.193 239.273C566.587 236.091 569.905 233.636 574.148 231.909C578.42 230.152 583.345 229.273 588.92 229.273C597.102 229.273 603.542 231.015 608.239 234.5C612.966 237.985 615.89 242.697 617.011 248.636ZM648.023 300L621.75 206.909H639.886L656.659 275.318H657.523L675.432 206.909H691.932L709.886 275.364H710.705L727.477 206.909H745.614L719.341 300H702.705L684.068 234.682H683.341L664.659 300H648.023ZM780.364 301.364C773.364 301.364 767.318 299.909 762.227 297C757.167 294.061 753.273 289.909 750.545 284.545C747.818 279.152 746.455 272.803 746.455 265.5C746.455 258.318 747.818 252.015 750.545 246.591C753.303 241.136 757.152 236.894 762.091 233.864C767.03 230.803 772.833 229.273 779.5 229.273C783.803 229.273 787.864 229.97 791.682 231.364C795.53 232.727 798.924 234.848 801.864 237.727C804.833 240.606 807.167 244.273 808.864 248.727C810.561 253.152 811.409 258.424 811.409 264.545V269.591H754.182V258.5H795.636C795.606 255.348 794.924 252.545 793.591 250.091C792.258 247.606 790.394 245.652 788 244.227C785.636 242.803 782.879 242.091 779.727 242.091C776.364 242.091 773.409 242.909 770.864 244.545C768.318 246.152 766.333 248.273 764.909 250.909C763.515 253.515 762.803 256.379 762.773 259.5V269.182C762.773 273.242 763.515 276.727 765 279.636C766.485 282.515 768.561 284.727 771.227 286.273C773.894 287.788 777.015 288.545 780.591 288.545C782.985 288.545 785.152 288.212 787.091 287.545C789.03 286.848 790.712 285.833 792.136 284.5C793.561 283.167 794.636 281.515 795.364 279.545L810.727 281.273C809.758 285.333 807.909 288.879 805.182 291.909C802.485 294.909 799.03 297.242 794.818 298.909C790.606 300.545 785.788 301.364 780.364 301.364ZM826.057 300V206.909H842.511V241.727H843.193C844.042 240.03 845.239 238.227 846.784 236.318C848.33 234.379 850.42 232.727 853.057 231.364C855.693 229.97 859.057 229.273 863.148 229.273C868.542 229.273 873.405 230.652 877.739 233.409C882.102 236.136 885.557 240.182 888.102 245.545C890.678 250.879 891.966 257.424 891.966 265.182C891.966 272.848 890.708 279.364 888.193 284.727C885.678 290.091 882.254 294.182 877.92 297C873.587 299.818 868.678 301.227 863.193 301.227C859.193 301.227 855.875 300.561 853.239 299.227C850.602 297.894 848.481 296.288 846.875 294.409C845.299 292.5 844.072 290.697 843.193 289H842.239V300H826.057ZM842.193 265.091C842.193 269.606 842.83 273.561 844.102 276.955C845.405 280.348 847.269 283 849.693 284.909C852.148 286.788 855.117 287.727 858.602 287.727C862.239 287.727 865.284 286.758 867.739 284.818C870.193 282.848 872.042 280.167 873.284 276.773C874.557 273.348 875.193 269.455 875.193 265.091C875.193 260.758 874.572 256.909 873.33 253.545C872.087 250.182 870.239 247.545 867.784 245.636C865.33 243.727 862.269 242.773 858.602 242.773C855.087 242.773 852.102 243.697 849.648 245.545C847.193 247.394 845.33 249.985 844.057 253.318C842.814 256.652 842.193 260.576 842.193 265.091Z" fill="black"/>
<circle cx="841" cy="219" r="167" fill="#F3F3F3"/>
<mask id="mask0_12_3" style="mask-type:alpha" maskUnits="userSpaceOnUse" x="674" y="52" width="334" height="334">
<circle cx="841" cy="219" r="167" fill="#D9D9D9"/>
</mask>
<g mask="url(#mask0_12_3)">
<path d="M287.182 300V206.909H322.818C329.545 206.909 335.136 207.97 339.591 210.091C344.076 212.182 347.424 215.045 349.636 218.682C351.879 222.318 353 226.439 353 231.045C353 234.833 352.273 238.076 350.818 240.773C349.364 243.439 347.409 245.606 344.955 247.273C342.5 248.939 339.758 250.136 336.727 250.864V251.773C340.03 251.955 343.197 252.97 346.227 254.818C349.288 256.636 351.788 259.212 353.727 262.545C355.667 265.879 356.636 269.909 356.636 274.636C356.636 279.455 355.47 283.788 353.136 287.636C350.803 291.455 347.288 294.47 342.591 296.682C337.894 298.894 331.985 300 324.864 300H287.182ZM304.045 285.909H322.182C328.303 285.909 332.712 284.742 335.409 282.409C338.136 280.045 339.5 277.015 339.5 273.318C339.5 270.561 338.818 268.076 337.455 265.864C336.091 263.621 334.152 261.864 331.636 260.591C329.121 259.288 326.121 258.636 322.636 258.636H304.045V285.909ZM304.045 246.5H320.727C323.636 246.5 326.258 245.97 328.591 244.909C330.924 243.818 332.758 242.288 334.091 240.318C335.455 238.318 336.136 235.955 336.136 233.227C336.136 229.621 334.864 226.652 332.318 224.318C329.803 221.985 326.061 220.818 321.091 220.818H304.045V246.5ZM387.034 206.909V300H370.58V206.909H387.034ZM434.409 301.364C427.591 301.364 421.682 299.864 416.682 296.864C411.682 293.864 407.803 289.667 405.045 284.273C402.318 278.879 400.955 272.576 400.955 265.364C400.955 258.152 402.318 251.833 405.045 246.409C407.803 240.985 411.682 236.773 416.682 233.773C421.682 230.773 427.591 229.273 434.409 229.273C441.227 229.273 447.136 230.773 452.136 233.773C457.136 236.773 461 240.985 463.727 246.409C466.485 251.833 467.864 258.152 467.864 265.364C467.864 272.576 466.485 278.879 463.727 284.273C461 289.667 457.136 293.864 452.136 296.864C447.136 299.864 441.227 301.364 434.409 301.364ZM434.5 288.182C438.197 288.182 441.288 287.167 443.773 285.136C446.258 283.076 448.106 280.318 449.318 276.864C450.561 273.409 451.182 269.561 451.182 265.318C451.182 261.045 450.561 257.182 449.318 253.727C448.106 250.242 446.258 247.47 443.773 245.409C441.288 243.348 438.197 242.318 434.5 242.318C430.712 242.318 427.561 243.348 425.045 245.409C422.561 247.47 420.697 250.242 419.455 253.727C418.242 257.182 417.636 261.045 417.636 265.318C417.636 269.561 418.242 273.409 419.455 276.864C420.697 280.318 422.561 283.076 425.045 285.136C427.561 287.167 430.712 288.182 434.5 288.182ZM512.193 327.636C506.284 327.636 501.208 326.833 496.966 325.227C492.723 323.652 489.314 321.53 486.739 318.864C484.163 316.197 482.375 313.242 481.375 310L496.193 306.409C496.86 307.773 497.83 309.121 499.102 310.455C500.375 311.818 502.087 312.939 504.239 313.818C506.42 314.727 509.163 315.182 512.466 315.182C517.133 315.182 520.996 314.045 524.057 311.773C527.117 309.53 528.648 305.833 528.648 300.682V287.455H527.83C526.981 289.152 525.739 290.894 524.102 292.682C522.496 294.47 520.36 295.97 517.693 297.182C515.057 298.394 511.739 299 507.739 299C502.375 299 497.511 297.742 493.148 295.227C488.814 292.682 485.36 288.894 482.784 283.864C480.239 278.803 478.966 272.47 478.966 264.864C478.966 257.197 480.239 250.727 482.784 245.455C485.36 240.152 488.83 236.136 493.193 233.409C497.557 230.652 502.42 229.273 507.784 229.273C511.875 229.273 515.239 229.97 517.875 231.364C520.542 232.727 522.663 234.379 524.239 236.318C525.814 238.227 527.011 240.03 527.83 241.727H528.739V230.182H544.966V301.136C544.966 307.106 543.542 312.045 540.693 315.955C537.845 319.864 533.951 322.788 529.011 324.727C524.072 326.667 518.466 327.636 512.193 327.636ZM512.33 286.091C515.814 286.091 518.784 285.242 521.239 283.545C523.693 281.848 525.557 279.409 526.83 276.227C528.102 273.045 528.739 269.227 528.739 264.773C528.739 260.379 528.102 256.53 526.83 253.227C525.587 249.924 523.739 247.364 521.284 245.545C518.86 243.697 515.875 242.773 512.33 242.773C508.663 242.773 505.602 243.727 503.148 245.636C500.693 247.545 498.845 250.167 497.602 253.5C496.36 256.803 495.739 260.561 495.739 264.773C495.739 269.045 496.36 272.788 497.602 276C498.875 279.182 500.739 281.667 503.193 283.455C505.678 285.212 508.723 286.091 512.33 286.091ZM617.011 248.636L602.011 250.273C601.587 248.758 600.845 247.333 599.784 246C598.754 244.667 597.36 243.591 595.602 242.773C593.845 241.955 591.693 241.545 589.148 241.545C585.723 241.545 582.845 242.288 580.511 243.773C578.208 245.258 577.072 247.182 577.102 249.545C577.072 251.576 577.814 253.227 579.33 254.5C580.875 255.773 583.42 256.818 586.966 257.636L598.875 260.182C605.481 261.606 610.39 263.864 613.602 266.955C616.845 270.045 618.481 274.091 618.511 279.091C618.481 283.485 617.193 287.364 614.648 290.727C612.133 294.061 608.633 296.667 604.148 298.545C599.663 300.424 594.511 301.364 588.693 301.364C580.148 301.364 573.269 299.576 568.057 296C562.845 292.394 559.739 287.379 558.739 280.955L574.784 279.409C575.511 282.561 577.057 284.939 579.42 286.545C581.784 288.152 584.86 288.955 588.648 288.955C592.557 288.955 595.693 288.152 598.057 286.545C600.451 284.939 601.648 282.955 601.648 280.591C601.648 278.591 600.875 276.939 599.33 275.636C597.814 274.333 595.451 273.333 592.239 272.636L580.33 270.136C573.633 268.742 568.678 266.394 565.466 263.091C562.254 259.758 560.663 255.545 560.693 250.455C560.663 246.152 561.83 242.424 564.193 239.273C566.587 236.091 569.905 233.636 574.148 231.909C578.42 230.152 583.345 229.273 588.92 229.273C597.102 229.273 603.542 231.015 608.239 234.5C612.966 237.985 615.89 242.697 617.011 248.636ZM648.023 300L621.75 206.909H639.886L656.659 275.318H657.523L675.432 206.909H691.932L709.886 275.364H710.705L727.477 206.909H745.614L719.341 300H702.705L684.068 234.682H683.341L664.659 300H648.023ZM780.364 301.364C773.364 301.364 767.318 299.909 762.227 297C757.167 294.061 753.273 289.909 750.545 284.545C747.818 279.152 746.455 272.803 746.455 265.5C746.455 258.318 747.818 252.015 750.545 246.591C753.303 241.136 757.152 236.894 762.091 233.864C767.03 230.803 772.833 229.273 779.5 229.273C783.803 229.273 787.864 229.97 791.682 231.364C795.53 232.727 798.924 234.848 801.864 237.727C804.833 240.606 807.167 244.273 808.864 248.727C810.561 253.152 811.409 258.424 811.409 264.545V269.591H754.182V258.5H795.636C795.606 255.348 794.924 252.545 793.591 250.091C792.258 247.606 790.394 245.652 788 244.227C785.636 242.803 782.879 242.091 779.727 242.091C776.364 242.091 773.409 242.909 770.864 244.545C768.318 246.152 766.333 248.273 764.909 250.909C763.515 253.515 762.803 256.379 762.773 259.5V269.182C762.773 273.242 763.515 276.727 765 279.636C766.485 282.515 768.561 284.727 771.227 286.273C773.894 287.788 777.015 288.545 780.591 288.545C782.985 288.545 785.152 288.212 787.091 287.545C789.03 286.848 790.712 285.833 792.136 284.5C793.561 283.167 794.636 281.515 795.364 279.545L810.727 281.273C809.758 285.333 807.909 288.879 805.182 291.909C802.485 294.909 799.03 297.242 794.818 298.909C790.606 300.545 785.788 301.364 780.364 301.364ZM826.057 300V206.909H842.511V241.727H843.193C844.042 240.03 845.239 238.227 846.784 236.318C848.33 234.379 850.42 232.727 853.057 231.364C855.693 229.97 859.057 229.273 863.148 229.273C868.542 229.273 873.405 230.652 877.739 233.409C882.102 236.136 885.557 240.182 888.102 245.545C890.678 250.879 891.966 257.424 891.966 265.182C891.966 272.848 890.708 279.364 888.193 284.727C885.678 290.091 882.254 294.182 877.92 297C873.587 299.818 868.678 301.227 863.193 301.227C859.193 301.227 855.875 300.561 853.239 299.227C850.602 297.894 848.481 296.288 846.875 294.409C845.299 292.5 844.072 290.697 843.193 289H842.239V300H826.057ZM842.193 265.091C842.193 269.606 842.83 273.561 844.102 276.955C845.405 280.348 847.269 283 849.693 284.909C852.148 286.788 855.117 287.727 858.602 287.727C862.239 287.727 865.284 286.758 867.739 284.818C870.193 282.848 872.042 280.167 873.284 276.773C874.557 273.348 875.193 269.455 875.193 265.091C875.193 260.758 874.572 256.909 873.33 253.545C872.087 250.182 870.239 247.545 867.784 245.636C865.33 243.727 862.269 242.773 858.602 242.773C855.087 242.773 852.102 243.697 849.648 245.545C847.193 247.394 845.33 249.985 844.057 253.318C842.814 256.652 842.193 260.576 842.193 265.091Z" fill="url(#paint1_linear_12_3)"/>
</g>
<circle cx="302.5" cy="321.5" r="102.5" fill="#FFF8F8"/>
<mask id="mask1_12_3" style="mask-type:alpha" maskUnits="userSpaceOnUse" x="200" y="219" width="205" height="205">
<circle cx="302.5" cy="321.5" r="102.5" fill="#D9D9D9"/>
</mask>
<g mask="url(#mask1_12_3)">
<path d="M287.182 300V206.909H322.818C329.545 206.909 335.136 207.97 339.591 210.091C344.076 212.182 347.424 215.045 349.636 218.682C351.879 222.318 353 226.439 353 231.045C353 234.833 352.273 238.076 350.818 240.773C349.364 243.439 347.409 245.606 344.955 247.273C342.5 248.939 339.758 250.136 336.727 250.864V251.773C340.03 251.955 343.197 252.97 346.227 254.818C349.288 256.636 351.788 259.212 353.727 262.545C355.667 265.879 356.636 269.909 356.636 274.636C356.636 279.455 355.47 283.788 353.136 287.636C350.803 291.455 347.288 294.47 342.591 296.682C337.894 298.894 331.985 300 324.864 300H287.182ZM304.045 285.909H322.182C328.303 285.909 332.712 284.742 335.409 282.409C338.136 280.045 339.5 277.015 339.5 273.318C339.5 270.561 338.818 268.076 337.455 265.864C336.091 263.621 334.152 261.864 331.636 260.591C329.121 259.288 326.121 258.636 322.636 258.636H304.045V285.909ZM304.045 246.5H320.727C323.636 246.5 326.258 245.97 328.591 244.909C330.924 243.818 332.758 242.288 334.091 240.318C335.455 238.318 336.136 235.955 336.136 233.227C336.136 229.621 334.864 226.652 332.318 224.318C329.803 221.985 326.061 220.818 321.091 220.818H304.045V246.5ZM387.034 206.909V300H370.58V206.909H387.034ZM434.409 301.364C427.591 301.364 421.682 299.864 416.682 296.864C411.682 293.864 407.803 289.667 405.045 284.273C402.318 278.879 400.955 272.576 400.955 265.364C400.955 258.152 402.318 251.833 405.045 246.409C407.803 240.985 411.682 236.773 416.682 233.773C421.682 230.773 427.591 229.273 434.409 229.273C441.227 229.273 447.136 230.773 452.136 233.773C457.136 236.773 461 240.985 463.727 246.409C466.485 251.833 467.864 258.152 467.864 265.364C467.864 272.576 466.485 278.879 463.727 284.273C461 289.667 457.136 293.864 452.136 296.864C447.136 299.864 441.227 301.364 434.409 301.364ZM434.5 288.182C438.197 288.182 441.288 287.167 443.773 285.136C446.258 283.076 448.106 280.318 449.318 276.864C450.561 273.409 451.182 269.561 451.182 265.318C451.182 261.045 450.561 257.182 449.318 253.727C448.106 250.242 446.258 247.47 443.773 245.409C441.288 243.348 438.197 242.318 434.5 242.318C430.712 242.318 427.561 243.348 425.045 245.409C422.561 247.47 420.697 250.242 419.455 253.727C418.242 257.182 417.636 261.045 417.636 265.318C417.636 269.561 418.242 273.409 419.455 276.864C420.697 280.318 422.561 283.076 425.045 285.136C427.561 287.167 430.712 288.182 434.5 288.182ZM512.193 327.636C506.284 327.636 501.208 326.833 496.966 325.227C492.723 323.652 489.314 321.53 486.739 318.864C484.163 316.197 482.375 313.242 481.375 310L496.193 306.409C496.86 307.773 497.83 309.121 499.102 310.455C500.375 311.818 502.087 312.939 504.239 313.818C506.42 314.727 509.163 315.182 512.466 315.182C517.133 315.182 520.996 314.045 524.057 311.773C527.117 309.53 528.648 305.833 528.648 300.682V287.455H527.83C526.981 289.152 525.739 290.894 524.102 292.682C522.496 294.47 520.36 295.97 517.693 297.182C515.057 298.394 511.739 299 507.739 299C502.375 299 497.511 297.742 493.148 295.227C488.814 292.682 485.36 288.894 482.784 283.864C480.239 278.803 478.966 272.47 478.966 264.864C478.966 257.197 480.239 250.727 482.784 245.455C485.36 240.152 488.83 236.136 493.193 233.409C497.557 230.652 502.42 229.273 507.784 229.273C511.875 229.273 515.239 229.97 517.875 231.364C520.542 232.727 522.663 234.379 524.239 236.318C525.814 238.227 527.011 240.03 527.83 241.727H528.739V230.182H544.966V301.136C544.966 307.106 543.542 312.045 540.693 315.955C537.845 319.864 533.951 322.788 529.011 324.727C524.072 326.667 518.466 327.636 512.193 327.636ZM512.33 286.091C515.814 286.091 518.784 285.242 521.239 283.545C523.693 281.848 525.557 279.409 526.83 276.227C528.102 273.045 528.739 269.227 528.739 264.773C528.739 260.379 528.102 256.53 526.83 253.227C525.587 249.924 523.739 247.364 521.284 245.545C518.86 243.697 515.875 242.773 512.33 242.773C508.663 242.773 505.602 243.727 503.148 245.636C500.693 247.545 498.845 250.167 497.602 253.5C496.36 256.803 495.739 260.561 495.739 264.773C495.739 269.045 496.36 272.788 497.602 276C498.875 279.182 500.739 281.667 503.193 283.455C505.678 285.212 508.723 286.091 512.33 286.091ZM617.011 248.636L602.011 250.273C601.587 248.758 600.845 247.333 599.784 246C598.754 244.667 597.36 243.591 595.602 242.773C593.845 241.955 591.693 241.545 589.148 241.545C585.723 241.545 582.845 242.288 580.511 243.773C578.208 245.258 577.072 247.182 577.102 249.545C577.072 251.576 577.814 253.227 579.33 254.5C580.875 255.773 583.42 256.818 586.966 257.636L598.875 260.182C605.481 261.606 610.39 263.864 613.602 266.955C616.845 270.045 618.481 274.091 618.511 279.091C618.481 283.485 617.193 287.364 614.648 290.727C612.133 294.061 608.633 296.667 604.148 298.545C599.663 300.424 594.511 301.364 588.693 301.364C580.148 301.364 573.269 299.576 568.057 296C562.845 292.394 559.739 287.379 558.739 280.955L574.784 279.409C575.511 282.561 577.057 284.939 579.42 286.545C581.784 288.152 584.86 288.955 588.648 288.955C592.557 288.955 595.693 288.152 598.057 286.545C600.451 284.939 601.648 282.955 601.648 280.591C601.648 278.591 600.875 276.939 599.33 275.636C597.814 274.333 595.451 273.333 592.239 272.636L580.33 270.136C573.633 268.742 568.678 266.394 565.466 263.091C562.254 259.758 560.663 255.545 560.693 250.455C560.663 246.152 561.83 242.424 564.193 239.273C566.587 236.091 569.905 233.636 574.148 231.909C578.42 230.152 583.345 229.273 588.92 229.273C597.102 229.273 603.542 231.015 608.239 234.5C612.966 237.985 615.89 242.697 617.011 248.636ZM648.023 300L621.75 206.909H639.886L656.659 275.318H657.523L675.432 206.909H691.932L709.886 275.364H710.705L727.477 206.909H745.614L719.341 300H702.705L684.068 234.682H683.341L664.659 300H648.023ZM780.364 301.364C773.364 301.364 767.318 299.909 762.227 297C757.167 294.061 753.273 289.909 750.545 284.545C747.818 279.152 746.455 272.803 746.455 265.5C746.455 258.318 747.818 252.015 750.545 246.591C753.303 241.136 757.152 236.894 762.091 233.864C767.03 230.803 772.833 229.273 779.5 229.273C783.803 229.273 787.864 229.97 791.682 231.364C795.53 232.727 798.924 234.848 801.864 237.727C804.833 240.606 807.167 244.273 808.864 248.727C810.561 253.152 811.409 258.424 811.409 264.545V269.591H754.182V258.5H795.636C795.606 255.348 794.924 252.545 793.591 250.091C792.258 247.606 790.394 245.652 788 244.227C785.636 242.803 782.879 242.091 779.727 242.091C776.364 242.091 773.409 242.909 770.864 244.545C768.318 246.152 766.333 248.273 764.909 250.909C763.515 253.515 762.803 256.379 762.773 259.5V269.182C762.773 273.242 763.515 276.727 765 279.636C766.485 282.515 768.561 284.727 771.227 286.273C773.894 287.788 777.015 288.545 780.591 288.545C782.985 288.545 785.152 288.212 787.091 287.545C789.03 286.848 790.712 285.833 792.136 284.5C793.561 283.167 794.636 281.515 795.364 279.545L810.727 281.273C809.758 285.333 807.909 288.879 805.182 291.909C802.485 294.909 799.03 297.242 794.818 298.909C790.606 300.545 785.788 301.364 780.364 301.364ZM826.057 300V206.909H842.511V241.727H843.193C844.042 240.03 845.239 238.227 846.784 236.318C848.33 234.379 850.42 232.727 853.057 231.364C855.693 229.97 859.057 229.273 863.148 229.273C868.542 229.273 873.405 230.652 877.739 233.409C882.102 236.136 885.557 240.182 888.102 245.545C890.678 250.879 891.966 257.424 891.966 265.182C891.966 272.848 890.708 279.364 888.193 284.727C885.678 290.091 882.254 294.182 877.92 297C873.587 299.818 868.678 301.227 863.193 301.227C859.193 301.227 855.875 300.561 853.239 299.227C850.602 297.894 848.481 296.288 846.875 294.409C845.299 292.5 844.072 290.697 843.193 289H842.239V300H826.057ZM842.193 265.091C842.193 269.606 842.83 273.561 844.102 276.955C845.405 280.348 847.269 283 849.693 284.909C852.148 286.788 855.117 287.727 858.602 287.727C862.239 287.727 865.284 286.758 867.739 284.818C870.193 282.848 872.042 280.167 873.284 276.773C874.557 273.348 875.193 269.455 875.193 265.091C875.193 260.758 874.572 256.909 873.33 253.545C872.087 250.182 870.239 247.545 867.784 245.636C865.33 243.727 862.269 242.773 858.602 242.773C855.087 242.773 852.102 243.697 849.648 245.545C847.193 247.394 845.33 249.985 844.057 253.318C842.814 256.652 842.193 260.576 842.193 265.091Z" fill="url(#paint2_linear_12_3)"/>
</g>
<line x1="1076" y1="161.5" x2="1338" y2="161.5" stroke="black" stroke-width="3"/>
<line x1="1110" y1="187.5" x2="1372" y2="187.5" stroke="white" stroke-width="3"/>
<line x1="733" y1="464.5" x2="1226" y2="464.5" stroke="black" stroke-width="3"/>
<line x1="147" y1="564.5" x2="409" y2="564.5" stroke="black" stroke-width="3"/>
<line x1="-57" y1="117.5" x2="205" y2="117.5" stroke="black" stroke-width="3"/>
<line x1="658" y1="436.5" x2="1151" y2="436.5" stroke="white" stroke-width="3"/>
<line x1="107" y1="536.5" x2="369" y2="536.5" stroke="white" stroke-width="3"/>
<line x1="-97" y1="89.5" x2="165" y2="89.5" stroke="white" stroke-width="3"/>
<rect x="1372" y="91" width="38" height="38" fill="#272829"/>
<rect x="1059" y="342" width="33" height="33" fill="#881DF4" fill-opacity="0.63"/>
<rect x="1300" y="466" width="38" height="38" fill="#272829"/>
<rect x="462" y="480" width="38" height="38" fill="#272829"/>
<rect x="1299" y="52" width="19" height="19" fill="#881DF4" fill-opacity="0.63"/>
<rect x="55" y="161" width="38" height="38" fill="#272829"/>
<rect x="384" y="33" width="38" height="38" fill="white"/>
<rect x="1247" y="262" width="38" height="38" fill="white"/>
<rect x="128" y="210" width="18" height="18" fill="white"/>
<rect x="27" y="350" width="101" height="50" fill="#881DF4" fill-opacity="0.63"/>
<rect x="920" y="518" width="228" height="39" fill="white"/>
<path d="M289.295 358V334.727H293.511V354.466H303.761V358H289.295ZM314.966 358.341C313.216 358.341 311.705 357.977 310.432 357.25C309.167 356.515 308.193 355.477 307.511 354.136C306.83 352.788 306.489 351.201 306.489 349.375C306.489 347.58 306.83 346.004 307.511 344.648C308.201 343.284 309.163 342.223 310.398 341.466C311.633 340.701 313.083 340.318 314.75 340.318C315.826 340.318 316.841 340.492 317.795 340.841C318.758 341.182 319.606 341.712 320.341 342.432C321.083 343.152 321.667 344.068 322.091 345.182C322.515 346.288 322.727 347.606 322.727 349.136V350.398H308.42V347.625H318.784C318.777 346.837 318.606 346.136 318.273 345.523C317.939 344.902 317.473 344.413 316.875 344.057C316.284 343.701 315.595 343.523 314.807 343.523C313.966 343.523 313.227 343.727 312.591 344.136C311.955 344.538 311.458 345.068 311.102 345.727C310.754 346.379 310.576 347.095 310.568 347.875V350.295C310.568 351.311 310.754 352.182 311.125 352.909C311.496 353.629 312.015 354.182 312.682 354.568C313.348 354.947 314.129 355.136 315.023 355.136C315.621 355.136 316.163 355.053 316.648 354.886C317.133 354.712 317.553 354.458 317.909 354.125C318.265 353.792 318.534 353.379 318.716 352.886L322.557 353.318C322.314 354.333 321.852 355.22 321.17 355.977C320.496 356.727 319.633 357.311 318.58 357.727C317.527 358.136 316.322 358.341 314.966 358.341ZM334.923 340.545V343.727H324.889V340.545H334.923ZM327.366 336.364H331.48V352.75C331.48 353.303 331.563 353.727 331.73 354.023C331.904 354.311 332.132 354.508 332.412 354.614C332.692 354.72 333.003 354.773 333.344 354.773C333.601 354.773 333.836 354.754 334.048 354.716C334.268 354.678 334.435 354.644 334.548 354.614L335.241 357.83C335.022 357.905 334.707 357.989 334.298 358.08C333.897 358.17 333.404 358.223 332.821 358.239C331.791 358.269 330.863 358.114 330.037 357.773C329.211 357.424 328.556 356.886 328.071 356.159C327.594 355.432 327.359 354.523 327.366 353.432V336.364ZM344.892 334.727H349.653L355.347 345.023H355.574L361.267 334.727H366.028L357.562 349.318V358H353.358V349.318L344.892 334.727ZM373.196 358.341C371.491 358.341 370.014 357.966 368.764 357.216C367.514 356.466 366.545 355.417 365.855 354.068C365.173 352.72 364.832 351.144 364.832 349.341C364.832 347.538 365.173 345.958 365.855 344.602C366.545 343.246 367.514 342.193 368.764 341.443C370.014 340.693 371.491 340.318 373.196 340.318C374.901 340.318 376.378 340.693 377.628 341.443C378.878 342.193 379.844 343.246 380.526 344.602C381.215 345.958 381.56 347.538 381.56 349.341C381.56 351.144 381.215 352.72 380.526 354.068C379.844 355.417 378.878 356.466 377.628 357.216C376.378 357.966 374.901 358.341 373.196 358.341ZM373.219 355.045C374.143 355.045 374.916 354.792 375.537 354.284C376.158 353.769 376.62 353.08 376.923 352.216C377.234 351.352 377.389 350.39 377.389 349.33C377.389 348.261 377.234 347.295 376.923 346.432C376.62 345.561 376.158 344.867 375.537 344.352C374.916 343.837 374.143 343.58 373.219 343.58C372.272 343.58 371.484 343.837 370.855 344.352C370.234 344.867 369.768 345.561 369.457 346.432C369.154 347.295 369.003 348.261 369.003 349.33C369.003 350.39 369.154 351.352 369.457 352.216C369.768 353.08 370.234 353.769 370.855 354.284C371.484 354.792 372.272 355.045 373.219 355.045ZM396.176 350.659V340.545H400.29V358H396.301V354.898H396.119C395.725 355.875 395.078 356.674 394.176 357.295C393.282 357.917 392.18 358.227 390.869 358.227C389.725 358.227 388.714 357.973 387.835 357.466C386.964 356.951 386.282 356.205 385.79 355.227C385.297 354.242 385.051 353.053 385.051 351.659V340.545H389.165V351.023C389.165 352.129 389.468 353.008 390.074 353.659C390.68 354.311 391.475 354.636 392.46 354.636C393.066 354.636 393.653 354.489 394.222 354.193C394.79 353.898 395.256 353.458 395.619 352.875C395.991 352.284 396.176 351.545 396.176 350.659ZM404.52 358V340.545H408.509V343.455H408.69C409.009 342.447 409.554 341.67 410.327 341.125C411.107 340.572 411.997 340.295 412.997 340.295C413.224 340.295 413.478 340.307 413.759 340.33C414.046 340.345 414.285 340.371 414.474 340.409V344.193C414.3 344.133 414.024 344.08 413.645 344.034C413.274 343.981 412.914 343.955 412.565 343.955C411.815 343.955 411.141 344.117 410.543 344.443C409.952 344.761 409.486 345.205 409.145 345.773C408.804 346.341 408.634 346.996 408.634 347.739V358H404.52ZM445.247 342.58H440.997C440.876 341.883 440.652 341.265 440.327 340.727C440.001 340.182 439.596 339.72 439.111 339.341C438.626 338.962 438.073 338.678 437.452 338.489C436.838 338.292 436.175 338.193 435.463 338.193C434.198 338.193 433.077 338.511 432.099 339.148C431.122 339.777 430.357 340.701 429.804 341.92C429.251 343.133 428.974 344.614 428.974 346.364C428.974 348.144 429.251 349.644 429.804 350.864C430.365 352.076 431.13 352.992 432.099 353.614C433.077 354.227 434.194 354.534 435.452 354.534C436.149 354.534 436.8 354.443 437.406 354.261C438.02 354.072 438.569 353.795 439.054 353.432C439.546 353.068 439.959 352.621 440.293 352.091C440.634 351.561 440.868 350.955 440.997 350.273L445.247 350.295C445.088 351.402 444.743 352.439 444.213 353.409C443.69 354.379 443.005 355.235 442.156 355.977C441.308 356.712 440.315 357.288 439.179 357.705C438.043 358.114 436.781 358.318 435.395 358.318C433.349 358.318 431.524 357.845 429.918 356.898C428.312 355.951 427.046 354.583 426.122 352.795C425.198 351.008 424.736 348.864 424.736 346.364C424.736 343.856 425.202 341.712 426.134 339.932C427.065 338.144 428.334 336.777 429.94 335.83C431.546 334.883 433.365 334.409 435.395 334.409C436.69 334.409 437.895 334.591 439.009 334.955C440.122 335.318 441.115 335.852 441.986 336.557C442.857 337.254 443.573 338.11 444.134 339.125C444.702 340.133 445.073 341.284 445.247 342.58ZM448.926 358V340.545H452.915V343.455H453.097C453.415 342.447 453.96 341.67 454.733 341.125C455.513 340.572 456.403 340.295 457.403 340.295C457.631 340.295 457.884 340.307 458.165 340.33C458.453 340.345 458.691 340.371 458.881 340.409V344.193C458.706 344.133 458.43 344.08 458.051 344.034C457.68 343.981 457.32 343.955 456.972 343.955C456.222 343.955 455.547 344.117 454.949 344.443C454.358 344.761 453.892 345.205 453.551 345.773C453.21 346.341 453.04 346.996 453.04 347.739V358H448.926ZM468.622 358.341C466.872 358.341 465.361 357.977 464.088 357.25C462.823 356.515 461.849 355.477 461.168 354.136C460.486 352.788 460.145 351.201 460.145 349.375C460.145 347.58 460.486 346.004 461.168 344.648C461.857 343.284 462.819 342.223 464.054 341.466C465.289 340.701 466.74 340.318 468.406 340.318C469.482 340.318 470.497 340.492 471.452 340.841C472.414 341.182 473.262 341.712 473.997 342.432C474.74 343.152 475.323 344.068 475.747 345.182C476.171 346.288 476.384 347.606 476.384 349.136V350.398H462.077V347.625H472.44C472.433 346.837 472.262 346.136 471.929 345.523C471.596 344.902 471.13 344.413 470.531 344.057C469.94 343.701 469.251 343.523 468.463 343.523C467.622 343.523 466.884 343.727 466.247 344.136C465.611 344.538 465.115 345.068 464.759 345.727C464.41 346.379 464.232 347.095 464.224 347.875V350.295C464.224 351.311 464.41 352.182 464.781 352.909C465.152 353.629 465.671 354.182 466.338 354.568C467.005 354.947 467.785 355.136 468.679 355.136C469.277 355.136 469.819 355.053 470.304 354.886C470.789 354.712 471.209 354.458 471.565 354.125C471.921 353.792 472.19 353.379 472.372 352.886L476.213 353.318C475.971 354.333 475.509 355.22 474.827 355.977C474.152 356.727 473.289 357.311 472.236 357.727C471.183 358.136 469.978 358.341 468.622 358.341ZM484.886 358.352C483.78 358.352 482.784 358.155 481.898 357.761C481.019 357.36 480.322 356.769 479.807 355.989C479.299 355.208 479.045 354.246 479.045 353.102C479.045 352.117 479.227 351.303 479.591 350.659C479.955 350.015 480.451 349.5 481.08 349.114C481.708 348.727 482.417 348.436 483.205 348.239C484 348.034 484.822 347.886 485.67 347.795C486.693 347.689 487.523 347.595 488.159 347.511C488.795 347.42 489.258 347.284 489.545 347.102C489.841 346.913 489.989 346.621 489.989 346.227V346.159C489.989 345.303 489.735 344.64 489.227 344.17C488.72 343.701 487.989 343.466 487.034 343.466C486.027 343.466 485.227 343.686 484.636 344.125C484.053 344.564 483.659 345.083 483.455 345.682L479.614 345.136C479.917 344.076 480.417 343.189 481.114 342.477C481.811 341.758 482.663 341.22 483.67 340.864C484.678 340.5 485.792 340.318 487.011 340.318C487.852 340.318 488.689 340.417 489.523 340.614C490.356 340.811 491.117 341.136 491.807 341.591C492.496 342.038 493.049 342.648 493.466 343.42C493.89 344.193 494.102 345.159 494.102 346.318V358H490.148V355.602H490.011C489.761 356.087 489.409 356.542 488.955 356.966C488.508 357.383 487.943 357.72 487.261 357.977C486.587 358.227 485.795 358.352 484.886 358.352ZM485.955 355.33C486.78 355.33 487.496 355.167 488.102 354.841C488.708 354.508 489.174 354.068 489.5 353.523C489.833 352.977 490 352.383 490 351.739V349.682C489.871 349.788 489.652 349.886 489.341 349.977C489.038 350.068 488.697 350.148 488.318 350.216C487.939 350.284 487.564 350.345 487.193 350.398C486.822 350.451 486.5 350.496 486.227 350.534C485.614 350.617 485.064 350.754 484.58 350.943C484.095 351.133 483.712 351.398 483.432 351.739C483.152 352.072 483.011 352.504 483.011 353.034C483.011 353.792 483.288 354.364 483.841 354.75C484.394 355.136 485.098 355.33 485.955 355.33ZM506.955 340.545V343.727H496.92V340.545H506.955ZM499.398 336.364H503.511V352.75C503.511 353.303 503.595 353.727 503.761 354.023C503.936 354.311 504.163 354.508 504.443 354.614C504.723 354.72 505.034 354.773 505.375 354.773C505.633 354.773 505.867 354.754 506.08 354.716C506.299 354.678 506.466 354.644 506.58 354.614L507.273 357.83C507.053 357.905 506.739 357.989 506.33 358.08C505.928 358.17 505.436 358.223 504.852 358.239C503.822 358.269 502.894 358.114 502.068 357.773C501.242 357.424 500.587 356.886 500.102 356.159C499.625 355.432 499.39 354.523 499.398 353.432V336.364ZM510.395 358V340.545H514.509V358H510.395ZM512.463 338.068C511.812 338.068 511.251 337.852 510.781 337.42C510.312 336.981 510.077 336.455 510.077 335.841C510.077 335.22 510.312 334.693 510.781 334.261C511.251 333.822 511.812 333.602 512.463 333.602C513.122 333.602 513.683 333.822 514.145 334.261C514.615 334.693 514.849 335.22 514.849 335.841C514.849 336.455 514.615 336.981 514.145 337.42C513.683 337.852 513.122 338.068 512.463 338.068ZM534.33 340.545L528.114 358H523.568L517.352 340.545H521.739L525.75 353.511H525.932L529.955 340.545H534.33ZM537.176 358V340.545H541.29V358H537.176ZM539.244 338.068C538.593 338.068 538.032 337.852 537.562 337.42C537.093 336.981 536.858 336.455 536.858 335.841C536.858 335.22 537.093 334.693 537.562 334.261C538.032 333.822 538.593 333.602 539.244 333.602C539.903 333.602 540.464 333.822 540.926 334.261C541.396 334.693 541.631 335.22 541.631 335.841C541.631 336.455 541.396 336.981 540.926 337.42C540.464 337.852 539.903 338.068 539.244 338.068ZM554.236 340.545V343.727H544.202V340.545H554.236ZM546.679 336.364H550.793V352.75C550.793 353.303 550.876 353.727 551.043 354.023C551.217 354.311 551.444 354.508 551.724 354.614C552.005 354.72 552.315 354.773 552.656 354.773C552.914 354.773 553.149 354.754 553.361 354.716C553.58 354.678 553.747 354.644 553.861 354.614L554.554 357.83C554.334 357.905 554.02 357.989 553.611 358.08C553.209 358.17 552.717 358.223 552.134 358.239C551.103 358.269 550.175 358.114 549.349 357.773C548.524 357.424 547.868 356.886 547.384 356.159C546.906 355.432 546.671 354.523 546.679 353.432V336.364ZM560.233 364.545C559.672 364.545 559.153 364.5 558.676 364.409C558.206 364.326 557.831 364.227 557.551 364.114L558.506 360.909C559.104 361.083 559.638 361.167 560.108 361.159C560.578 361.152 560.991 361.004 561.347 360.716C561.71 360.436 562.017 359.966 562.267 359.307L562.619 358.364L556.29 340.545H560.653L564.676 353.727H564.858L568.892 340.545H573.267L566.278 360.114C565.953 361.038 565.521 361.83 564.983 362.489C564.445 363.155 563.786 363.663 563.006 364.011C562.233 364.367 561.309 364.545 560.233 364.545ZM599.824 342.159C599.634 341.545 599.373 340.996 599.04 340.511C598.714 340.019 598.32 339.598 597.858 339.25C597.403 338.902 596.881 338.64 596.29 338.466C595.699 338.284 595.055 338.193 594.358 338.193C593.108 338.193 591.994 338.508 591.017 339.136C590.04 339.765 589.271 340.689 588.71 341.909C588.157 343.121 587.881 344.598 587.881 346.341C587.881 348.098 588.157 349.587 588.71 350.807C589.263 352.027 590.032 352.955 591.017 353.591C592.002 354.22 593.146 354.534 594.449 354.534C595.631 354.534 596.653 354.307 597.517 353.852C598.388 353.398 599.059 352.754 599.528 351.92C599.998 351.08 600.233 350.095 600.233 348.966L601.188 349.114H594.869V345.818H604.312V348.614C604.312 350.606 603.888 352.33 603.04 353.784C602.191 355.239 601.025 356.36 599.54 357.148C598.055 357.928 596.35 358.318 594.426 358.318C592.282 358.318 590.4 357.837 588.778 356.875C587.165 355.905 585.903 354.53 584.994 352.75C584.093 350.962 583.642 348.841 583.642 346.386C583.642 344.508 583.907 342.83 584.438 341.352C584.975 339.875 585.725 338.621 586.688 337.591C587.65 336.553 588.778 335.765 590.074 335.227C591.369 334.682 592.778 334.409 594.301 334.409C595.589 334.409 596.79 334.598 597.903 334.977C599.017 335.348 600.006 335.879 600.869 336.568C601.741 337.258 602.456 338.076 603.017 339.023C603.578 339.97 603.945 341.015 604.119 342.159H599.824ZM615.821 358.341C614.116 358.341 612.639 357.966 611.389 357.216C610.139 356.466 609.17 355.417 608.48 354.068C607.798 352.72 607.457 351.144 607.457 349.341C607.457 347.538 607.798 345.958 608.48 344.602C609.17 343.246 610.139 342.193 611.389 341.443C612.639 340.693 614.116 340.318 615.821 340.318C617.526 340.318 619.003 340.693 620.253 341.443C621.503 342.193 622.469 343.246 623.151 344.602C623.84 345.958 624.185 347.538 624.185 349.341C624.185 351.144 623.84 352.72 623.151 354.068C622.469 355.417 621.503 356.466 620.253 357.216C619.003 357.966 617.526 358.341 615.821 358.341ZM615.844 355.045C616.768 355.045 617.541 354.792 618.162 354.284C618.783 353.769 619.245 353.08 619.548 352.216C619.859 351.352 620.014 350.39 620.014 349.33C620.014 348.261 619.859 347.295 619.548 346.432C619.245 345.561 618.783 344.867 618.162 344.352C617.541 343.837 616.768 343.58 615.844 343.58C614.897 343.58 614.109 343.837 613.48 344.352C612.859 344.867 612.393 345.561 612.082 346.432C611.779 347.295 611.628 348.261 611.628 349.33C611.628 350.39 611.779 351.352 612.082 352.216C612.393 353.08 612.859 353.769 613.48 354.284C614.109 354.792 614.897 355.045 615.844 355.045ZM640.693 358L634.125 334.727H638.659L642.852 351.83H643.068L647.545 334.727H651.67L656.159 351.841H656.364L660.557 334.727H665.091L658.523 358H654.364L649.705 341.67H649.523L644.852 358H640.693ZM667.832 358V340.545H671.946V358H667.832ZM669.901 338.068C669.249 338.068 668.688 337.852 668.219 337.42C667.749 336.981 667.514 336.455 667.514 335.841C667.514 335.22 667.749 334.693 668.219 334.261C668.688 333.822 669.249 333.602 669.901 333.602C670.56 333.602 671.12 333.822 671.582 334.261C672.052 334.693 672.287 335.22 672.287 335.841C672.287 336.455 672.052 336.981 671.582 337.42C671.12 337.852 670.56 338.068 669.901 338.068ZM680.29 334.727V358H676.176V334.727H680.29ZM690.997 358.307C689.626 358.307 688.399 357.955 687.315 357.25C686.232 356.545 685.376 355.523 684.747 354.182C684.118 352.841 683.804 351.212 683.804 349.295C683.804 347.356 684.122 345.72 684.759 344.386C685.402 343.045 686.27 342.034 687.361 341.352C688.452 340.663 689.668 340.318 691.009 340.318C692.031 340.318 692.872 340.492 693.531 340.841C694.19 341.182 694.713 341.595 695.099 342.08C695.486 342.557 695.785 343.008 695.997 343.432H696.168V334.727H700.293V358H696.247V355.25H695.997C695.785 355.674 695.478 356.125 695.077 356.602C694.675 357.072 694.145 357.473 693.486 357.807C692.827 358.14 691.997 358.307 690.997 358.307ZM692.145 354.932C693.016 354.932 693.759 354.697 694.372 354.227C694.986 353.75 695.452 353.087 695.77 352.239C696.088 351.39 696.247 350.402 696.247 349.273C696.247 348.144 696.088 347.163 695.77 346.33C695.459 345.496 694.997 344.848 694.384 344.386C693.777 343.924 693.031 343.693 692.145 343.693C691.228 343.693 690.463 343.932 689.849 344.409C689.236 344.886 688.774 345.545 688.463 346.386C688.152 347.227 687.997 348.189 687.997 349.273C687.997 350.364 688.152 351.337 688.463 352.193C688.781 353.042 689.247 353.712 689.861 354.205C690.482 354.689 691.243 354.932 692.145 354.932ZM709.71 334.727L709.335 351.159H705.676L705.312 334.727H709.71ZM707.506 358.25C706.816 358.25 706.225 358.008 705.733 357.523C705.248 357.038 705.006 356.447 705.006 355.75C705.006 355.068 705.248 354.485 705.733 354C706.225 353.515 706.816 353.273 707.506 353.273C708.18 353.273 708.763 353.515 709.256 354C709.756 354.485 710.006 355.068 710.006 355.75C710.006 356.212 709.888 356.633 709.653 357.011C709.426 357.39 709.123 357.693 708.744 357.92C708.373 358.14 707.96 358.25 707.506 358.25Z" fill="black"/>
<path d="M782.295 188V164.727H791.205C792.886 164.727 794.284 164.992 795.398 165.523C796.519 166.045 797.356 166.761 797.909 167.67C798.47 168.58 798.75 169.61 798.75 170.761C798.75 171.708 798.568 172.519 798.205 173.193C797.841 173.86 797.352 174.402 796.739 174.818C796.125 175.235 795.439 175.534 794.682 175.716V175.943C795.508 175.989 796.299 176.242 797.057 176.705C797.822 177.159 798.447 177.803 798.932 178.636C799.417 179.47 799.659 180.477 799.659 181.659C799.659 182.864 799.367 183.947 798.784 184.909C798.201 185.864 797.322 186.617 796.148 187.17C794.973 187.723 793.496 188 791.716 188H782.295ZM786.511 184.477H791.045C792.576 184.477 793.678 184.186 794.352 183.602C795.034 183.011 795.375 182.254 795.375 181.33C795.375 180.64 795.205 180.019 794.864 179.466C794.523 178.905 794.038 178.466 793.409 178.148C792.78 177.822 792.03 177.659 791.159 177.659H786.511V184.477ZM786.511 174.625H790.682C791.409 174.625 792.064 174.492 792.648 174.227C793.231 173.955 793.689 173.572 794.023 173.08C794.364 172.58 794.534 171.989 794.534 171.307C794.534 170.405 794.216 169.663 793.58 169.08C792.951 168.496 792.015 168.205 790.773 168.205H786.511V174.625ZM807.259 164.727V188H803.145V164.727H807.259ZM819.102 188.341C817.398 188.341 815.92 187.966 814.67 187.216C813.42 186.466 812.451 185.417 811.761 184.068C811.08 182.72 810.739 181.144 810.739 179.341C810.739 177.538 811.08 175.958 811.761 174.602C812.451 173.246 813.42 172.193 814.67 171.443C815.92 170.693 817.398 170.318 819.102 170.318C820.807 170.318 822.284 170.693 823.534 171.443C824.784 172.193 825.75 173.246 826.432 174.602C827.121 175.958 827.466 177.538 827.466 179.341C827.466 181.144 827.121 182.72 826.432 184.068C825.75 185.417 824.784 186.466 823.534 187.216C822.284 187.966 820.807 188.341 819.102 188.341ZM819.125 185.045C820.049 185.045 820.822 184.792 821.443 184.284C822.064 183.769 822.527 183.08 822.83 182.216C823.14 181.352 823.295 180.39 823.295 179.33C823.295 178.261 823.14 177.295 822.83 176.432C822.527 175.561 822.064 174.867 821.443 174.352C820.822 173.837 820.049 173.58 819.125 173.58C818.178 173.58 817.39 173.837 816.761 174.352C816.14 174.867 815.674 175.561 815.364 176.432C815.061 177.295 814.909 178.261 814.909 179.33C814.909 180.39 815.061 181.352 815.364 182.216C815.674 183.08 816.14 183.769 816.761 184.284C817.39 184.792 818.178 185.045 819.125 185.045ZM838.548 194.909C837.071 194.909 835.802 194.708 834.741 194.307C833.681 193.913 832.829 193.383 832.185 192.716C831.541 192.049 831.094 191.311 830.844 190.5L834.548 189.602C834.715 189.943 834.957 190.28 835.276 190.614C835.594 190.955 836.022 191.235 836.56 191.455C837.105 191.682 837.791 191.795 838.616 191.795C839.783 191.795 840.749 191.511 841.514 190.943C842.279 190.383 842.662 189.458 842.662 188.17V184.864H842.457C842.245 185.288 841.935 185.723 841.526 186.17C841.124 186.617 840.59 186.992 839.923 187.295C839.264 187.598 838.435 187.75 837.435 187.75C836.094 187.75 834.878 187.436 833.787 186.807C832.704 186.17 831.84 185.223 831.196 183.966C830.56 182.701 830.241 181.117 830.241 179.216C830.241 177.299 830.56 175.682 831.196 174.364C831.84 173.038 832.707 172.034 833.798 171.352C834.889 170.663 836.105 170.318 837.446 170.318C838.469 170.318 839.31 170.492 839.969 170.841C840.635 171.182 841.166 171.595 841.56 172.08C841.954 172.557 842.253 173.008 842.457 173.432H842.685V170.545H846.741V188.284C846.741 189.777 846.385 191.011 845.673 191.989C844.961 192.966 843.988 193.697 842.753 194.182C841.518 194.667 840.116 194.909 838.548 194.909ZM838.582 184.523C839.454 184.523 840.196 184.311 840.81 183.886C841.423 183.462 841.889 182.852 842.207 182.057C842.526 181.261 842.685 180.307 842.685 179.193C842.685 178.095 842.526 177.133 842.207 176.307C841.897 175.481 841.435 174.841 840.821 174.386C840.215 173.924 839.469 173.693 838.582 173.693C837.666 173.693 836.901 173.932 836.287 174.409C835.673 174.886 835.211 175.542 834.901 176.375C834.59 177.201 834.435 178.14 834.435 179.193C834.435 180.261 834.59 181.197 834.901 182C835.219 182.795 835.685 183.417 836.298 183.864C836.92 184.303 837.681 184.523 838.582 184.523ZM863.918 188.352C862.812 188.352 861.815 188.155 860.929 187.761C860.05 187.36 859.353 186.769 858.838 185.989C858.33 185.208 858.077 184.246 858.077 183.102C858.077 182.117 858.259 181.303 858.622 180.659C858.986 180.015 859.482 179.5 860.111 179.114C860.74 178.727 861.448 178.436 862.236 178.239C863.031 178.034 863.853 177.886 864.702 177.795C865.724 177.689 866.554 177.595 867.19 177.511C867.827 177.42 868.289 177.284 868.577 177.102C868.872 176.913 869.02 176.621 869.02 176.227V176.159C869.02 175.303 868.766 174.64 868.259 174.17C867.751 173.701 867.02 173.466 866.065 173.466C865.058 173.466 864.259 173.686 863.668 174.125C863.084 174.564 862.69 175.083 862.486 175.682L858.645 175.136C858.948 174.076 859.448 173.189 860.145 172.477C860.842 171.758 861.694 171.22 862.702 170.864C863.709 170.5 864.823 170.318 866.043 170.318C866.884 170.318 867.721 170.417 868.554 170.614C869.387 170.811 870.149 171.136 870.838 171.591C871.527 172.038 872.08 172.648 872.497 173.42C872.921 174.193 873.134 175.159 873.134 176.318V188H869.179V185.602H869.043C868.793 186.087 868.44 186.542 867.986 186.966C867.539 187.383 866.974 187.72 866.293 187.977C865.618 188.227 864.827 188.352 863.918 188.352ZM864.986 185.33C865.812 185.33 866.527 185.167 867.134 184.841C867.74 184.508 868.205 184.068 868.531 183.523C868.865 182.977 869.031 182.383 869.031 181.739V179.682C868.902 179.788 868.683 179.886 868.372 179.977C868.069 180.068 867.728 180.148 867.349 180.216C866.971 180.284 866.596 180.345 866.224 180.398C865.853 180.451 865.531 180.496 865.259 180.534C864.645 180.617 864.096 180.754 863.611 180.943C863.126 181.133 862.743 181.398 862.463 181.739C862.183 182.072 862.043 182.504 862.043 183.034C862.043 183.792 862.319 184.364 862.872 184.75C863.425 185.136 864.13 185.33 864.986 185.33ZM891.065 175.159L887.315 175.568C887.209 175.189 887.024 174.833 886.759 174.5C886.501 174.167 886.152 173.898 885.713 173.693C885.274 173.489 884.736 173.386 884.099 173.386C883.243 173.386 882.524 173.572 881.94 173.943C881.365 174.314 881.08 174.795 881.088 175.386C881.08 175.894 881.266 176.307 881.645 176.625C882.031 176.943 882.668 177.205 883.554 177.409L886.531 178.045C888.183 178.402 889.41 178.966 890.213 179.739C891.024 180.511 891.433 181.523 891.44 182.773C891.433 183.871 891.111 184.841 890.474 185.682C889.846 186.515 888.971 187.167 887.849 187.636C886.728 188.106 885.44 188.341 883.986 188.341C881.849 188.341 880.13 187.894 878.827 187C877.524 186.098 876.747 184.845 876.497 183.239L880.509 182.852C880.69 183.64 881.077 184.235 881.668 184.636C882.259 185.038 883.027 185.239 883.974 185.239C884.952 185.239 885.736 185.038 886.327 184.636C886.925 184.235 887.224 183.739 887.224 183.148C887.224 182.648 887.031 182.235 886.645 181.909C886.266 181.583 885.675 181.333 884.872 181.159L881.895 180.534C880.221 180.186 878.982 179.598 878.179 178.773C877.376 177.939 876.978 176.886 876.986 175.614C876.978 174.538 877.27 173.606 877.861 172.818C878.459 172.023 879.289 171.409 880.349 170.977C881.418 170.538 882.649 170.318 884.043 170.318C886.088 170.318 887.698 170.754 888.872 171.625C890.054 172.496 890.785 173.674 891.065 175.159ZM901.361 164.727H906.122L911.815 175.023H912.043L917.736 164.727H922.497L914.031 179.318V188H909.827V179.318L901.361 164.727ZM929.665 188.341C927.96 188.341 926.483 187.966 925.233 187.216C923.983 186.466 923.013 185.417 922.324 184.068C921.642 182.72 921.301 181.144 921.301 179.341C921.301 177.538 921.642 175.958 922.324 174.602C923.013 173.246 923.983 172.193 925.233 171.443C926.483 170.693 927.96 170.318 929.665 170.318C931.369 170.318 932.847 170.693 934.097 171.443C935.347 172.193 936.313 173.246 936.994 174.602C937.684 175.958 938.028 177.538 938.028 179.341C938.028 181.144 937.684 182.72 936.994 184.068C936.313 185.417 935.347 186.466 934.097 187.216C932.847 187.966 931.369 188.341 929.665 188.341ZM929.688 185.045C930.612 185.045 931.384 184.792 932.006 184.284C932.627 183.769 933.089 183.08 933.392 182.216C933.703 181.352 933.858 180.39 933.858 179.33C933.858 178.261 933.703 177.295 933.392 176.432C933.089 175.561 932.627 174.867 932.006 174.352C931.384 173.837 930.612 173.58 929.688 173.58C928.741 173.58 927.953 173.837 927.324 174.352C926.703 174.867 926.237 175.561 925.926 176.432C925.623 177.295 925.472 178.261 925.472 179.33C925.472 180.39 925.623 181.352 925.926 182.216C926.237 183.08 926.703 183.769 927.324 184.284C927.953 184.792 928.741 185.045 929.688 185.045ZM952.645 180.659V170.545H956.759V188H952.77V184.898H952.588C952.194 185.875 951.546 186.674 950.645 187.295C949.751 187.917 948.649 188.227 947.338 188.227C946.194 188.227 945.183 187.973 944.304 187.466C943.433 186.951 942.751 186.205 942.259 185.227C941.766 184.242 941.52 183.053 941.52 181.659V170.545H945.634V181.023C945.634 182.129 945.937 183.008 946.543 183.659C947.149 184.311 947.944 184.636 948.929 184.636C949.535 184.636 950.122 184.489 950.69 184.193C951.259 183.898 951.724 183.458 952.088 182.875C952.459 182.284 952.645 181.545 952.645 180.659Z" fill="black"/>
<path d="M959 296.557H924.091V290.233H953.699V274.858H959V296.557ZM959 269.642H932.818V263.472H959V269.642ZM929.102 266.54C929.102 267.517 928.778 268.358 928.131 269.062C927.472 269.767 926.682 270.119 925.761 270.119C924.83 270.119 924.04 269.767 923.392 269.062C922.733 268.358 922.403 267.517 922.403 266.54C922.403 265.551 922.733 264.71 923.392 264.017C924.04 263.312 924.83 262.96 925.761 262.96C926.682 262.96 927.472 263.312 928.131 264.017C928.778 264.71 929.102 265.551 929.102 266.54ZM950.784 251.501L943.335 251.518V250.53L932.818 241.121V233.911L945.705 245.484V246.763L950.784 251.501ZM959 257.126H924.091V250.956H959V257.126ZM959 240.695L947.085 249.217L942.739 245.058L959 233.314V240.695ZM959.511 219.286C959.511 221.911 958.966 224.178 957.875 226.087C956.773 227.984 955.216 229.445 953.205 230.467C951.182 231.49 948.801 232.001 946.062 232.001C943.369 232.001 941.006 231.49 938.972 230.467C936.926 229.433 935.335 227.99 934.199 226.138C933.051 224.286 932.477 222.109 932.477 219.609C932.477 217.996 932.739 216.473 933.261 215.041C933.773 213.598 934.568 212.325 935.648 211.223C936.727 210.109 938.102 209.234 939.773 208.598C941.432 207.962 943.409 207.643 945.705 207.643H947.597V229.104H943.438V213.558C942.256 213.57 941.205 213.825 940.284 214.325C939.352 214.825 938.619 215.524 938.085 216.422C937.551 217.308 937.284 218.342 937.284 219.524C937.284 220.786 937.591 221.893 938.205 222.848C938.807 223.803 939.602 224.547 940.591 225.081C941.568 225.604 942.642 225.871 943.812 225.882H947.443C948.966 225.882 950.273 225.604 951.364 225.047C952.443 224.49 953.273 223.712 953.852 222.712C954.42 221.712 954.705 220.541 954.705 219.2C954.705 218.303 954.58 217.49 954.33 216.763C954.068 216.036 953.688 215.405 953.188 214.871C952.688 214.337 952.068 213.933 951.33 213.661L951.977 207.899C953.5 208.263 954.83 208.956 955.966 209.979C957.091 210.99 957.966 212.286 958.591 213.865C959.205 215.445 959.511 217.251 959.511 219.286Z" fill="black"/>
<defs>
<linearGradient id="paint0_linear_12_3" x1="720" y1="0" x2="720" y2="584" gradientUnits="userSpaceOnUse">
<stop stop-color="#FAC406"/>
<stop offset="1" stop-color="#FA7B06"/>
</linearGradient>
<linearGradient id="paint1_linear_12_3" x1="588" y1="176" x2="588" y2="331" gradientUnits="userSpaceOnUse">
<stop stop-color="#F7D41C"/>
<stop offset="1" stop-color="#881DF4" stop-opacity="0.63"/>
</linearGradient>
<linearGradient id="paint2_linear_12_3" x1="588" y1="176" x2="588" y2="331" gradientUnits="userSpaceOnUse">
<stop stop-color="#F7D41C"/>
<stop offset="1" stop-color="#881DF4" stop-opacity="0.63"/>
</linearGradient>
</defs>
</svg>
