<svg xmlns="http://www.w3.org/2000/svg" width="1357" height="484" viewBox="0 0 1357 484" fill="none">
<path d="M13.7272 363V124.827H103.193C119.045 124.827 130.866 128.588 138.657 136.111C146.449 143.365 150.344 153.037 150.344 165.127V191.725C150.344 198.71 149.27 205.158 147.12 211.069C145.24 216.711 142.284 221.413 138.254 225.174C135.299 228.129 131.672 230.413 127.373 232.025C123.075 233.637 118.776 234.712 114.477 235.249V235.652C118.507 235.652 122.403 236.189 126.164 237.264C130.194 238.339 134.359 240.488 138.657 243.712C143.225 247.205 146.852 252.041 149.538 258.22C152.494 264.399 153.971 272.056 153.971 281.191V313.028C153.971 325.924 151.688 335.999 147.12 343.253C142.822 350.507 136.374 355.612 127.776 358.567C119.448 361.522 109.373 363 97.5512 363H13.7272ZM69.7442 334.387H84.6552C87.3419 334.387 89.6256 333.715 91.5062 332.372C93.3869 331.029 94.8646 328.611 95.9392 325.118C97.0139 321.357 97.5512 316.252 97.5512 309.804V282.803C97.5512 273.131 96.3422 266.817 93.9242 263.862C91.5062 260.907 88.0136 259.429 83.4462 259.429H69.7442V334.387ZM69.7442 224.368H82.6402C86.6702 224.368 90.0286 222.622 92.7152 219.129C95.4019 215.368 96.7452 208.382 96.7452 198.173V175.605C96.7452 167.814 95.6706 162.44 93.5212 159.485C91.3719 156.261 88.4166 154.649 84.6552 154.649H69.7442V224.368ZM176.265 363V124.827H231.476V324.715H280.239V363H176.265ZM363.582 367.836C349.88 367.836 337.79 366.224 327.312 363C317.102 359.507 309.042 352.656 303.132 342.447C297.49 332.238 294.669 316.924 294.669 296.505V175.202C294.669 161.5 297.49 150.753 303.132 142.962C309.042 135.171 317.102 129.663 327.312 126.439C337.79 122.946 349.88 121.2 363.582 121.2C377.284 121.2 389.374 122.946 399.852 126.439C410.33 129.663 418.524 135.171 424.435 142.962C430.614 150.753 433.704 161.5 433.704 175.202V296.102C433.704 316.789 430.614 332.238 424.435 342.447C418.524 352.656 410.33 359.507 399.852 363C389.374 366.224 377.284 367.836 363.582 367.836ZM363.582 335.193C366.268 335.193 368.686 334.656 370.836 333.581C373.254 332.506 375 330.76 376.075 328.342C377.149 325.655 377.687 322.163 377.687 317.864V172.784C377.687 168.754 377.149 165.396 376.075 162.709C375 160.022 373.254 158.142 370.836 157.067C368.686 155.992 366.268 155.455 363.582 155.455C360.895 155.455 358.477 155.992 356.328 157.067C354.178 158.142 352.432 160.022 351.089 162.709C350.014 165.396 349.477 168.754 349.477 172.784V317.864C349.477 322.163 350.014 325.655 351.089 328.342C352.432 330.76 354.178 332.506 356.328 333.581C358.477 334.656 360.895 335.193 363.582 335.193ZM508.022 367.03C499.425 367.03 491.096 365.552 483.036 362.597C475.245 359.642 468.663 353.597 463.289 344.462C458.185 335.327 455.632 321.894 455.632 304.162V176.008C455.632 162.306 458.453 151.559 464.095 143.768C470.006 135.708 478.066 130.066 488.275 126.842C498.485 123.618 510.575 122.006 524.545 122.006C538.247 122.006 550.337 123.752 560.815 127.245C571.293 130.469 579.488 135.977 585.398 143.768C591.578 151.559 594.667 162.306 594.667 176.008V211.069H540.262V172.784C540.262 167.948 539.591 164.321 538.247 161.903C537.173 159.485 535.561 157.873 533.411 157.067C531.531 155.992 528.978 155.455 525.754 155.455C523.068 155.455 520.65 155.992 518.5 157.067C516.351 157.873 514.605 159.485 513.261 161.903C512.187 164.321 511.649 167.948 511.649 172.784V317.864C511.649 322.431 512.187 326.058 513.261 328.745C514.605 331.432 516.351 333.178 518.5 333.984C520.65 334.79 523.068 335.193 525.754 335.193C530.322 335.193 533.814 333.85 536.232 331.163C538.919 328.476 540.262 324.043 540.262 317.864V271.922H525.754V240.488H594.667V363H552.352L549.531 346.074C549.531 346.343 549.397 346.746 549.128 347.283C548.86 347.552 548.591 347.82 548.322 348.089C546.173 352.388 541.874 356.686 535.426 360.985C529.247 365.015 520.112 367.03 508.022 367.03ZM683.916 366.224C668.871 366.224 655.975 364.209 645.228 360.179C634.482 356.149 626.287 349.029 620.645 338.82C615.272 328.611 612.585 313.968 612.585 294.893V280.385C622.257 280.385 631.929 280.385 641.601 280.385C651.542 280.385 661.348 280.385 671.02 280.385V299.729C671.02 308.326 671.558 314.909 672.632 319.476C673.707 323.775 675.185 326.73 677.065 328.342C679.215 329.954 681.767 330.76 684.722 330.76C689.29 330.76 692.648 329.014 694.797 325.521C697.215 321.76 698.424 314.506 698.424 303.759C698.424 294.356 696.947 287.505 693.991 283.206C691.305 278.639 686.737 274.877 680.289 271.922C673.841 268.967 665.244 265.34 654.497 261.041C644.825 256.474 637.034 251.235 631.123 245.324C625.213 239.413 620.914 232.025 618.227 223.159C615.809 214.293 614.6 203.815 614.6 191.725C614.6 175.336 616.75 162.172 621.048 152.231C625.347 142.29 632.601 135.171 642.81 130.872C653.02 126.305 667.125 124.021 685.125 124.021C707.962 124.021 725.291 128.857 737.112 138.529C748.934 147.932 754.844 162.172 754.844 181.247V210.666C745.71 210.666 736.441 210.666 727.037 210.666C717.903 210.666 708.634 210.666 699.23 210.666V198.173C699.23 186.889 698.424 179.098 696.812 174.799C695.2 170.5 691.439 168.351 685.528 168.351C680.424 168.351 676.931 170.097 675.05 173.59C673.17 176.814 672.229 182.187 672.229 189.71C672.229 198.307 673.841 204.89 677.065 209.457C680.558 213.756 684.991 217.114 690.364 219.532C695.738 221.681 701.38 223.831 707.29 225.98C719.112 230.547 728.649 235.249 735.903 240.085C743.426 244.652 748.934 251.1 752.426 259.429C755.919 267.758 757.665 279.713 757.665 295.296C757.665 313.028 754.71 327.133 748.799 337.611C742.889 347.82 734.291 355.209 723.007 359.776C711.992 364.075 698.962 366.224 683.916 366.224ZM804.993 363L769.932 124.827H827.561L846.905 292.072L866.652 124.827H913.4L933.147 292.072L952.491 124.827H1010.52L975.059 363H909.773L890.026 242.503L870.279 363H804.993ZM1027.92 363V124.827H1140.76V163.918H1086.35V218.726H1133.91V262.653H1086.35V324.715H1140.76V363H1027.92ZM1161.33 363V124.827H1250.8C1266.65 124.827 1278.47 128.588 1286.26 136.111C1294.05 143.365 1297.95 153.037 1297.95 165.127V191.725C1297.95 198.71 1296.88 205.158 1294.73 211.069C1292.85 216.711 1289.89 221.413 1285.86 225.174C1282.9 228.129 1279.28 230.413 1274.98 232.025C1270.68 233.637 1266.38 234.712 1262.08 235.249V235.652C1266.11 235.652 1270.01 236.189 1273.77 237.264C1277.8 238.339 1281.96 240.488 1286.26 243.712C1290.83 247.205 1294.46 252.041 1297.14 258.22C1300.1 264.399 1301.58 272.056 1301.58 281.191V313.028C1301.58 325.924 1299.29 335.999 1294.73 343.253C1290.43 350.507 1283.98 355.612 1275.38 358.567C1267.05 361.522 1256.98 363 1245.16 363H1161.33ZM1217.35 334.387H1232.26C1234.95 334.387 1237.23 333.715 1239.11 332.372C1240.99 331.029 1242.47 328.611 1243.54 325.118C1244.62 321.357 1245.16 316.252 1245.16 309.804V282.803C1245.16 273.131 1243.95 266.817 1241.53 263.862C1239.11 260.907 1235.62 259.429 1231.05 259.429H1217.35V334.387ZM1217.35 224.368H1230.25C1234.28 224.368 1237.63 222.622 1240.32 219.129C1243.01 215.368 1244.35 208.382 1244.35 198.173V175.605C1244.35 167.814 1243.28 162.44 1241.13 159.485C1238.98 156.261 1236.02 154.649 1232.26 154.649H1217.35V224.368Z" fill="url(#paint0_linear_135_824)"/>
<path d="M1006.64 108V73.0909H1021.2C1023.81 73.0909 1026 73.4602 1027.76 74.1989C1029.53 74.9375 1030.86 75.9716 1031.75 77.3011C1032.65 78.6307 1033.1 80.1705 1033.1 81.9205C1033.1 83.25 1032.82 84.4375 1032.26 85.483C1031.7 86.517 1030.94 87.375 1029.96 88.0568C1028.98 88.7386 1027.85 89.2159 1026.57 89.4886V89.8295C1027.98 89.8977 1029.28 90.2784 1030.47 90.9716C1031.68 91.6648 1032.64 92.6307 1033.37 93.8693C1034.1 95.0966 1034.46 96.5511 1034.46 98.233C1034.46 100.108 1033.98 101.784 1033.03 103.261C1032.07 104.727 1030.69 105.886 1028.89 106.739C1027.08 107.58 1024.89 108 1022.31 108H1006.64ZM1015.08 101.199H1020.3C1022.13 101.199 1023.47 100.852 1024.34 100.159C1025.21 99.4659 1025.65 98.5 1025.65 97.2614C1025.65 96.3636 1025.44 95.5909 1025.02 94.9432C1024.6 94.2841 1024 93.7784 1023.23 93.4261C1022.45 93.0625 1021.53 92.8807 1020.45 92.8807H1015.08V101.199ZM1015.08 87.4432H1019.75C1020.67 87.4432 1021.49 87.2898 1022.2 86.983C1022.92 86.6761 1023.48 86.233 1023.88 85.6534C1024.28 85.0739 1024.49 84.375 1024.49 83.5568C1024.49 82.3864 1024.07 81.4659 1023.24 80.7955C1022.41 80.125 1021.3 79.7898 1019.89 79.7898H1015.08V87.4432ZM1046.85 73.0909V108H1038.52V73.0909H1046.85ZM1064.38 108.494C1061.63 108.494 1059.27 107.932 1057.29 106.807C1055.32 105.67 1053.81 104.091 1052.74 102.068C1051.68 100.034 1051.15 97.6761 1051.15 94.9943C1051.15 92.3011 1051.68 89.9432 1052.74 87.9205C1053.81 85.8864 1055.32 84.3068 1057.29 83.1818C1059.27 82.0455 1061.63 81.4773 1064.38 81.4773C1067.13 81.4773 1069.49 82.0455 1071.45 83.1818C1073.43 84.3068 1074.95 85.8864 1076 87.9205C1077.07 89.9432 1077.61 92.3011 1077.61 94.9943C1077.61 97.6761 1077.07 100.034 1076 102.068C1074.95 104.091 1073.43 105.67 1071.45 106.807C1069.49 107.932 1067.13 108.494 1064.38 108.494ZM1064.43 102.205C1065.43 102.205 1066.28 101.898 1066.97 101.284C1067.66 100.67 1068.19 99.8182 1068.56 98.7273C1068.93 97.6364 1069.12 96.375 1069.12 94.9432C1069.12 93.4886 1068.93 92.2159 1068.56 91.125C1068.19 90.0341 1067.66 89.1818 1066.97 88.5682C1066.28 87.9545 1065.43 87.6477 1064.43 87.6477C1063.4 87.6477 1062.52 87.9545 1061.81 88.5682C1061.1 89.1818 1060.56 90.0341 1060.19 91.125C1059.82 92.2159 1059.64 93.4886 1059.64 94.9432C1059.64 96.375 1059.82 97.6364 1060.19 98.7273C1060.56 99.8182 1061.1 100.67 1061.81 101.284C1062.52 101.898 1063.4 102.205 1064.43 102.205ZM1094.08 118.364C1091.59 118.364 1089.46 118.017 1087.69 117.324C1085.92 116.631 1084.52 115.682 1083.51 114.477C1082.5 113.273 1081.89 111.909 1081.69 110.386L1089.58 109.943C1089.73 110.477 1090 110.943 1090.4 111.341C1090.81 111.739 1091.34 112.045 1091.98 112.261C1092.64 112.477 1093.42 112.585 1094.3 112.585C1095.7 112.585 1096.85 112.244 1097.76 111.562C1098.68 110.892 1099.14 109.716 1099.14 108.034V103.432H1098.85C1098.52 104.239 1098.02 104.96 1097.35 105.597C1096.68 106.233 1095.85 106.733 1094.85 107.097C1093.86 107.46 1092.72 107.642 1091.44 107.642C1089.53 107.642 1087.78 107.199 1086.19 106.312C1084.61 105.415 1083.34 104.028 1082.39 102.153C1081.44 100.267 1080.97 97.8409 1080.97 94.875C1080.97 91.8182 1081.46 89.3011 1082.44 87.3239C1083.42 85.3352 1084.69 83.8636 1086.27 82.9091C1087.87 81.9545 1089.58 81.4773 1091.4 81.4773C1092.78 81.4773 1093.96 81.7159 1094.93 82.1932C1095.92 82.6591 1096.73 83.2614 1097.37 84C1098.01 84.7386 1098.49 85.5057 1098.82 86.3011H1099.06V81.8182H1107.36V108.102C1107.36 110.318 1106.8 112.188 1105.69 113.71C1104.58 115.233 1103.02 116.386 1101.02 117.17C1099.02 117.966 1096.71 118.364 1094.08 118.364ZM1094.34 101.574C1095.35 101.574 1096.21 101.307 1096.93 100.773C1097.64 100.239 1098.19 99.4716 1098.58 98.4716C1098.97 97.4716 1099.16 96.2727 1099.16 94.875C1099.16 93.4545 1098.97 92.233 1098.58 91.2102C1098.21 90.1761 1097.65 89.3807 1096.93 88.8239C1096.21 88.267 1095.35 87.9886 1094.34 87.9886C1093.3 87.9886 1092.43 88.2727 1091.71 88.8409C1091 89.4091 1090.45 90.2102 1090.08 91.2443C1089.71 92.267 1089.53 93.4773 1089.53 94.875C1089.53 96.2727 1089.72 97.4716 1090.09 98.4716C1090.47 99.4716 1091.01 100.239 1091.71 100.773C1092.43 101.307 1093.3 101.574 1094.34 101.574ZM1130.54 108H1121.47L1133.25 73.0909H1144.48L1156.26 108H1147.19L1138.99 81.8864H1138.72L1130.54 108ZM1129.33 94.2614H1148.28V100.67H1129.33V94.2614ZM1182.08 89.8125L1174.42 90.017C1174.35 89.4716 1174.13 88.9886 1173.78 88.5682C1173.42 88.1364 1172.96 87.8011 1172.4 87.5625C1171.84 87.3125 1171.19 87.1875 1170.45 87.1875C1169.49 87.1875 1168.66 87.3807 1167.98 87.767C1167.31 88.1534 1166.98 88.6761 1166.99 89.3352C1166.98 89.8466 1167.19 90.2898 1167.61 90.6648C1168.04 91.0398 1168.81 91.3409 1169.91 91.5682L1174.95 92.5227C1177.57 93.0227 1179.51 93.8523 1180.78 95.0114C1182.07 96.1705 1182.71 97.7045 1182.73 99.6136C1182.71 101.409 1182.18 102.972 1181.12 104.301C1180.08 105.631 1178.65 106.665 1176.83 107.403C1175.01 108.131 1172.93 108.494 1170.59 108.494C1166.85 108.494 1163.9 107.727 1161.74 106.193C1159.6 104.648 1158.37 102.58 1158.06 99.9886L1166.29 99.7841C1166.48 100.739 1166.95 101.466 1167.71 101.966C1168.47 102.466 1169.44 102.716 1170.62 102.716C1171.69 102.716 1172.56 102.517 1173.23 102.119C1173.9 101.722 1174.24 101.193 1174.25 100.534C1174.24 99.9432 1173.98 99.4716 1173.47 99.1193C1172.96 98.7557 1172.16 98.4716 1171.07 98.267L1166.5 97.3977C1163.87 96.9205 1161.92 96.0398 1160.63 94.7557C1159.35 93.4602 1158.71 91.8125 1158.73 89.8125C1158.71 88.0625 1159.18 86.5682 1160.12 85.3295C1161.07 84.0795 1162.41 83.125 1164.15 82.4659C1165.88 81.8068 1167.94 81.4773 1170.3 81.4773C1173.85 81.4773 1176.64 82.2216 1178.69 83.7102C1180.73 85.1875 1181.86 87.2216 1182.08 89.8125ZM1195.4 73.0909H1204.83L1212.21 87.6989H1212.52L1219.9 73.0909H1229.32L1216.56 96.3409V108H1208.17V96.3409L1195.4 73.0909ZM1239.04 108.494C1236.29 108.494 1233.92 107.932 1231.94 106.807C1229.98 105.67 1228.46 104.091 1227.39 102.068C1226.34 100.034 1225.81 97.6761 1225.81 94.9943C1225.81 92.3011 1226.34 89.9432 1227.39 87.9205C1228.46 85.8864 1229.98 84.3068 1231.94 83.1818C1233.92 82.0455 1236.29 81.4773 1239.04 81.4773C1241.79 81.4773 1244.14 82.0455 1246.11 83.1818C1248.09 84.3068 1249.6 85.8864 1250.66 87.9205C1251.73 89.9432 1252.26 92.3011 1252.26 94.9943C1252.26 97.6761 1251.73 100.034 1250.66 102.068C1249.6 104.091 1248.09 105.67 1246.11 106.807C1244.14 107.932 1241.79 108.494 1239.04 108.494ZM1239.09 102.205C1240.09 102.205 1240.93 101.898 1241.63 101.284C1242.32 100.67 1242.85 99.8182 1243.21 98.7273C1243.59 97.6364 1243.77 96.375 1243.77 94.9432C1243.77 93.4886 1243.59 92.2159 1243.21 91.125C1242.85 90.0341 1242.32 89.1818 1241.63 88.5682C1240.93 87.9545 1240.09 87.6477 1239.09 87.6477C1238.05 87.6477 1237.18 87.9545 1236.46 88.5682C1235.76 89.1818 1235.22 90.0341 1234.84 91.125C1234.48 92.2159 1234.3 93.4886 1234.3 94.9432C1234.3 96.375 1234.48 97.6364 1234.84 98.7273C1235.22 99.8182 1235.76 100.67 1236.46 101.284C1237.18 101.898 1238.05 102.205 1239.09 102.205ZM1273.42 96.6989V81.8182H1281.74V108H1273.8V103.125H1273.53C1272.95 104.727 1271.96 106 1270.56 106.943C1269.17 107.875 1267.5 108.341 1265.53 108.341C1263.75 108.341 1262.18 107.932 1260.83 107.114C1259.48 106.295 1258.42 105.153 1257.67 103.688C1256.92 102.21 1256.54 100.483 1256.53 98.5057V81.8182H1264.87V96.8693C1264.88 98.2898 1265.25 99.4091 1265.99 100.227C1266.73 101.045 1267.74 101.455 1269.01 101.455C1269.84 101.455 1270.58 101.273 1271.24 100.909C1271.91 100.534 1272.44 99.9943 1272.83 99.2898C1273.23 98.5739 1273.42 97.7102 1273.42 96.6989Z" fill="#778DAA"/>
<path d="M15.642 435V400.091H24.0795V428.148H38.6023V435H15.642ZM55.2088 435.494C52.4702 435.494 50.1065 434.955 48.1179 433.875C46.1406 432.784 44.6179 431.233 43.5497 429.222C42.4929 427.199 41.9645 424.795 41.9645 422.011C41.9645 419.307 42.4986 416.943 43.5668 414.92C44.6349 412.886 46.1406 411.307 48.0838 410.182C50.027 409.045 52.3168 408.477 54.9531 408.477C56.8168 408.477 58.5213 408.767 60.0668 409.347C61.6122 409.926 62.9474 410.784 64.0724 411.92C65.1974 413.057 66.0724 414.46 66.6974 416.131C67.3224 417.79 67.6349 419.693 67.6349 421.841V423.92H44.8793V419.08H59.8793C59.8679 418.193 59.6577 417.403 59.2486 416.71C58.8395 416.017 58.277 415.477 57.5611 415.091C56.8565 414.693 56.044 414.494 55.1236 414.494C54.1918 414.494 53.3565 414.705 52.6179 415.125C51.8793 415.534 51.294 416.097 50.8622 416.812C50.4304 417.517 50.2031 418.318 50.1804 419.216V424.142C50.1804 425.21 50.3906 426.148 50.8111 426.955C51.2315 427.75 51.8281 428.369 52.6009 428.812C53.3736 429.256 54.294 429.477 55.3622 429.477C56.1009 429.477 56.7713 429.375 57.3736 429.17C57.9759 428.966 58.4929 428.665 58.9247 428.267C59.3565 427.869 59.6804 427.381 59.8963 426.801L67.5497 427.023C67.2315 428.739 66.5327 430.233 65.4531 431.506C64.3849 432.767 62.9815 433.75 61.2429 434.455C59.5043 435.148 57.4929 435.494 55.2088 435.494ZM86.6705 408.818V414.955H70.1534V408.818H86.6705ZM73.6136 402.545H81.9489V426.767C81.9489 427.278 82.0284 427.693 82.1875 428.011C82.358 428.318 82.6023 428.54 82.9205 428.676C83.2386 428.801 83.6193 428.864 84.0625 428.864C84.3807 428.864 84.7159 428.835 85.0682 428.778C85.4318 428.71 85.7045 428.653 85.8864 428.608L87.1477 434.625C86.75 434.739 86.1875 434.881 85.4602 435.051C84.7443 435.222 83.8864 435.33 82.8864 435.375C80.9318 435.466 79.2557 435.239 77.858 434.693C76.4716 434.136 75.4091 433.273 74.6705 432.102C73.9432 430.932 73.5909 429.46 73.6136 427.688V402.545ZM99.4972 400.091H108.923L116.304 414.699H116.611L123.991 400.091H133.418L120.651 423.341V435H112.264V423.341L99.4972 400.091ZM143.129 435.494C140.379 435.494 138.016 434.932 136.038 433.807C134.072 432.67 132.555 431.091 131.487 429.068C130.43 427.034 129.902 424.676 129.902 421.994C129.902 419.301 130.43 416.943 131.487 414.92C132.555 412.886 134.072 411.307 136.038 410.182C138.016 409.045 140.379 408.477 143.129 408.477C145.879 408.477 148.237 409.045 150.203 410.182C152.18 411.307 153.697 412.886 154.754 414.92C155.822 416.943 156.357 419.301 156.357 421.994C156.357 424.676 155.822 427.034 154.754 429.068C153.697 431.091 152.18 432.67 150.203 433.807C148.237 434.932 145.879 435.494 143.129 435.494ZM143.18 429.205C144.18 429.205 145.027 428.898 145.72 428.284C146.413 427.67 146.942 426.818 147.305 425.727C147.68 424.636 147.868 423.375 147.868 421.943C147.868 420.489 147.68 419.216 147.305 418.125C146.942 417.034 146.413 416.182 145.72 415.568C145.027 414.955 144.18 414.648 143.18 414.648C142.146 414.648 141.271 414.955 140.555 415.568C139.851 416.182 139.311 417.034 138.936 418.125C138.572 419.216 138.391 420.489 138.391 421.943C138.391 423.375 138.572 424.636 138.936 425.727C139.311 426.818 139.851 427.67 140.555 428.284C141.271 428.898 142.146 429.205 143.18 429.205ZM177.518 423.699V408.818H185.837V435H177.893V430.125H177.621C177.041 431.727 176.053 433 174.655 433.943C173.268 434.875 171.592 435.341 169.626 435.341C167.842 435.341 166.274 434.932 164.922 434.114C163.57 433.295 162.518 432.153 161.768 430.688C161.018 429.21 160.638 427.483 160.626 425.506V408.818H168.962V423.869C168.973 425.29 169.348 426.409 170.087 427.227C170.825 428.045 171.831 428.455 173.104 428.455C173.933 428.455 174.678 428.273 175.337 427.909C176.007 427.534 176.536 426.994 176.922 426.29C177.32 425.574 177.518 424.71 177.518 423.699ZM191.142 435V408.818H199.239V413.591H199.511C199.989 411.864 200.767 410.58 201.847 409.739C202.926 408.886 204.182 408.46 205.614 408.46C206 408.46 206.398 408.489 206.807 408.545C207.216 408.591 207.597 408.665 207.949 408.767V416.011C207.551 415.875 207.028 415.767 206.381 415.688C205.744 415.608 205.176 415.568 204.676 415.568C203.688 415.568 202.795 415.79 202 416.233C201.216 416.665 200.597 417.273 200.142 418.057C199.699 418.83 199.477 419.739 199.477 420.784V435H191.142ZM253.345 412.739H244.822C244.709 411.864 244.476 411.074 244.124 410.369C243.771 409.665 243.305 409.062 242.726 408.562C242.146 408.062 241.459 407.682 240.663 407.42C239.879 407.148 239.01 407.011 238.055 407.011C236.362 407.011 234.902 407.426 233.675 408.256C232.459 409.085 231.521 410.284 230.862 411.852C230.214 413.42 229.891 415.318 229.891 417.545C229.891 419.864 230.22 421.807 230.879 423.375C231.55 424.932 232.487 426.108 233.692 426.903C234.908 427.687 236.345 428.08 238.004 428.08C238.936 428.08 239.783 427.96 240.544 427.722C241.317 427.483 241.993 427.136 242.572 426.682C243.163 426.216 243.646 425.653 244.021 424.994C244.408 424.324 244.675 423.568 244.822 422.727L253.345 422.778C253.197 424.324 252.749 425.847 251.999 427.347C251.26 428.847 250.243 430.216 248.947 431.455C247.652 432.682 246.072 433.659 244.209 434.386C242.357 435.114 240.232 435.477 237.834 435.477C234.675 435.477 231.845 434.784 229.345 433.398C226.857 432 224.891 429.966 223.447 427.295C222.004 424.625 221.283 421.375 221.283 417.545C221.283 413.705 222.016 410.449 223.482 407.778C224.947 405.108 226.93 403.08 229.43 401.693C231.93 400.307 234.732 399.614 237.834 399.614C239.947 399.614 241.902 399.909 243.697 400.5C245.493 401.08 247.072 401.932 248.436 403.057C249.8 404.17 250.908 405.54 251.76 407.165C252.612 408.79 253.141 410.648 253.345 412.739ZM258.173 435V408.818H266.27V413.591H266.543C267.02 411.864 267.798 410.58 268.878 409.739C269.957 408.886 271.213 408.46 272.645 408.46C273.031 408.46 273.429 408.489 273.838 408.545C274.247 408.591 274.628 408.665 274.98 408.767V416.011C274.582 415.875 274.06 415.767 273.412 415.688C272.776 415.608 272.207 415.568 271.707 415.568C270.719 415.568 269.827 415.79 269.031 416.233C268.247 416.665 267.628 417.273 267.173 418.057C266.73 418.83 266.509 419.739 266.509 420.784V435H258.173ZM289.256 435.494C286.517 435.494 284.153 434.955 282.165 433.875C280.188 432.784 278.665 431.233 277.597 429.222C276.54 427.199 276.011 424.795 276.011 422.011C276.011 419.307 276.545 416.943 277.614 414.92C278.682 412.886 280.188 411.307 282.131 410.182C284.074 409.045 286.364 408.477 289 408.477C290.864 408.477 292.568 408.767 294.114 409.347C295.659 409.926 296.994 410.784 298.119 411.92C299.244 413.057 300.119 414.46 300.744 416.131C301.369 417.79 301.682 419.693 301.682 421.841V423.92H278.926V419.08H293.926C293.915 418.193 293.705 417.403 293.295 416.71C292.886 416.017 292.324 415.477 291.608 415.091C290.903 414.693 290.091 414.494 289.17 414.494C288.239 414.494 287.403 414.705 286.665 415.125C285.926 415.534 285.341 416.097 284.909 416.812C284.477 417.517 284.25 418.318 284.227 419.216V424.142C284.227 425.21 284.438 426.148 284.858 426.955C285.278 427.75 285.875 428.369 286.648 428.812C287.42 429.256 288.341 429.477 289.409 429.477C290.148 429.477 290.818 429.375 291.42 429.17C292.023 428.966 292.54 428.665 292.972 428.267C293.403 427.869 293.727 427.381 293.943 426.801L301.597 427.023C301.278 428.739 300.58 430.233 299.5 431.506C298.432 432.767 297.028 433.75 295.29 434.455C293.551 435.148 291.54 435.494 289.256 435.494ZM313.32 435.443C311.649 435.443 310.166 435.165 308.871 434.608C307.587 434.04 306.57 433.187 305.82 432.051C305.081 430.903 304.712 429.466 304.712 427.739C304.712 426.284 304.967 425.057 305.479 424.057C305.99 423.057 306.695 422.244 307.592 421.619C308.49 420.994 309.524 420.523 310.695 420.205C311.865 419.875 313.115 419.653 314.445 419.54C315.933 419.403 317.132 419.261 318.041 419.114C318.95 418.955 319.609 418.733 320.018 418.449C320.439 418.153 320.649 417.739 320.649 417.205V417.119C320.649 416.244 320.348 415.568 319.746 415.091C319.143 414.614 318.331 414.375 317.308 414.375C316.206 414.375 315.32 414.614 314.649 415.091C313.979 415.568 313.553 416.227 313.371 417.068L305.683 416.795C305.911 415.205 306.496 413.784 307.439 412.534C308.393 411.273 309.7 410.284 311.359 409.568C313.03 408.841 315.036 408.477 317.376 408.477C319.047 408.477 320.587 408.676 321.996 409.074C323.405 409.46 324.632 410.028 325.678 410.778C326.723 411.517 327.53 412.426 328.098 413.506C328.678 414.585 328.967 415.818 328.967 417.205V435H321.126V431.352H320.922C320.456 432.239 319.859 432.989 319.132 433.602C318.416 434.216 317.57 434.676 316.592 434.983C315.626 435.29 314.536 435.443 313.32 435.443ZM315.893 429.989C316.791 429.989 317.598 429.807 318.314 429.443C319.041 429.08 319.621 428.58 320.053 427.943C320.484 427.295 320.7 426.545 320.7 425.693V423.205C320.462 423.33 320.172 423.443 319.831 423.545C319.501 423.648 319.138 423.744 318.74 423.835C318.342 423.926 317.933 424.006 317.513 424.074C317.092 424.142 316.689 424.205 316.303 424.261C315.518 424.386 314.848 424.58 314.291 424.841C313.746 425.102 313.325 425.443 313.03 425.864C312.746 426.273 312.604 426.761 312.604 427.33C312.604 428.193 312.911 428.852 313.524 429.307C314.149 429.761 314.939 429.989 315.893 429.989ZM348.842 408.818V414.955H332.325V408.818H348.842ZM335.786 402.545H344.121V426.767C344.121 427.278 344.2 427.693 344.359 428.011C344.53 428.318 344.774 428.54 345.092 428.676C345.411 428.801 345.791 428.864 346.234 428.864C346.553 428.864 346.888 428.835 347.24 428.778C347.604 428.71 347.876 428.653 348.058 428.608L349.32 434.625C348.922 434.739 348.359 434.881 347.632 435.051C346.916 435.222 346.058 435.33 345.058 435.375C343.104 435.466 341.428 435.239 340.03 434.693C338.643 434.136 337.581 433.273 336.842 432.102C336.115 430.932 335.763 429.46 335.786 427.688V402.545ZM353.095 435V408.818H361.43V435H353.095ZM357.271 405.767C356.101 405.767 355.095 405.381 354.254 404.608C353.413 403.824 352.993 402.881 352.993 401.778C352.993 400.687 353.413 399.756 354.254 398.983C355.095 398.199 356.101 397.807 357.271 397.807C358.453 397.807 359.459 398.199 360.288 398.983C361.129 399.756 361.55 400.687 361.55 401.778C361.55 402.881 361.129 403.824 360.288 404.608C359.459 405.381 358.453 405.767 357.271 405.767ZM392.134 408.818L383.151 435H373.605L364.639 408.818H373.418L378.241 426.852H378.514L383.355 408.818H392.134ZM395.33 435V408.818H403.665V435H395.33ZM399.506 405.767C398.335 405.767 397.33 405.381 396.489 404.608C395.648 403.824 395.227 402.881 395.227 401.778C395.227 400.687 395.648 399.756 396.489 398.983C397.33 398.199 398.335 397.807 399.506 397.807C400.688 397.807 401.693 398.199 402.523 398.983C403.364 399.756 403.784 400.687 403.784 401.778C403.784 402.881 403.364 403.824 402.523 404.608C401.693 405.381 400.688 405.767 399.506 405.767ZM423.749 408.818V414.955H407.232V408.818H423.749ZM410.692 402.545H419.027V426.767C419.027 427.278 419.107 427.693 419.266 428.011C419.436 428.318 419.68 428.54 419.999 428.676C420.317 428.801 420.697 428.864 421.141 428.864C421.459 428.864 421.794 428.835 422.146 428.778C422.51 428.71 422.783 428.653 422.964 428.608L424.226 434.625C423.828 434.739 423.266 434.881 422.538 435.051C421.822 435.222 420.964 435.33 419.964 435.375C418.01 435.466 416.334 435.239 414.936 434.693C413.55 434.136 412.487 433.273 411.749 432.102C411.021 430.932 410.669 429.46 410.692 427.688V402.545ZM433.098 444.818C432.098 444.818 431.155 444.739 430.268 444.58C429.382 444.432 428.621 444.233 427.984 443.983L429.825 437.932C430.643 438.205 431.382 438.364 432.041 438.409C432.712 438.455 433.286 438.347 433.763 438.085C434.251 437.835 434.626 437.386 434.888 436.739L435.212 435.955L425.905 408.818H434.632L439.456 427.5H439.729L444.621 408.818H453.399L443.53 437.506C443.053 438.938 442.376 440.199 441.501 441.29C440.638 442.392 439.518 443.256 438.143 443.881C436.78 444.506 435.098 444.818 433.098 444.818ZM466.908 435V400.091H481.328C483.942 400.091 486.197 400.562 488.095 401.506C490.004 402.437 491.476 403.778 492.51 405.528C493.544 407.267 494.061 409.33 494.061 411.716C494.061 414.136 493.533 416.193 492.476 417.886C491.419 419.568 489.919 420.852 487.976 421.739C486.033 422.614 483.732 423.051 481.072 423.051H471.953V416.403H479.504C480.777 416.403 481.839 416.239 482.692 415.909C483.555 415.568 484.209 415.057 484.652 414.375C485.095 413.682 485.317 412.795 485.317 411.716C485.317 410.636 485.095 409.744 484.652 409.04C484.209 408.324 483.555 407.79 482.692 407.438C481.828 407.074 480.766 406.892 479.504 406.892H475.345V435H466.908ZM486.561 419.045L495.254 435H486.05L477.527 419.045H486.561ZM515.581 423.699V408.818H523.899V435H515.956V430.125H515.683C515.104 431.727 514.115 433 512.717 433.943C511.331 434.875 509.655 435.341 507.689 435.341C505.905 435.341 504.337 434.932 502.984 434.114C501.632 433.295 500.581 432.153 499.831 430.688C499.081 429.21 498.7 427.483 498.689 425.506V408.818H507.024V423.869C507.036 425.29 507.411 426.409 508.149 427.227C508.888 428.045 509.893 428.455 511.166 428.455C511.996 428.455 512.74 428.273 513.399 427.909C514.07 427.534 514.598 426.994 514.984 426.29C515.382 425.574 515.581 424.71 515.581 423.699ZM537.54 420.068V435H529.205V408.818H537.131V413.625H537.42C538 412.023 538.989 410.767 540.386 409.858C541.784 408.938 543.449 408.477 545.381 408.477C547.222 408.477 548.818 408.892 550.17 409.722C551.534 410.54 552.591 411.687 553.341 413.165C554.102 414.631 554.477 416.347 554.466 418.312V435H546.131V419.949C546.142 418.494 545.773 417.358 545.023 416.54C544.284 415.722 543.256 415.312 541.938 415.312C541.062 415.312 540.29 415.506 539.619 415.892C538.96 416.267 538.449 416.807 538.085 417.511C537.733 418.216 537.551 419.068 537.54 420.068ZM578.308 435L568.149 400.091H577.473L582.74 422.966H583.03L589.047 400.091H596.649L602.666 423.017H602.956L608.24 400.091H617.547L607.405 435H599.274L592.984 413.83H592.712L586.422 435H578.308ZM621.033 435V408.818H629.368V435H621.033ZM625.209 405.767C624.038 405.767 623.033 405.381 622.192 404.608C621.351 403.824 620.93 402.881 620.93 401.778C620.93 400.687 621.351 399.756 622.192 398.983C623.033 398.199 624.038 397.807 625.209 397.807C626.391 397.807 627.396 398.199 628.226 398.983C629.067 399.756 629.487 400.687 629.487 401.778C629.487 402.881 629.067 403.824 628.226 404.608C627.396 405.381 626.391 405.767 625.209 405.767ZM643.009 400.091V435H634.673V400.091H643.009ZM657.876 435.375C655.945 435.375 654.189 434.875 652.609 433.875C651.03 432.875 649.768 431.375 648.825 429.375C647.882 427.375 647.411 424.892 647.411 421.926C647.411 418.847 647.899 416.312 648.876 414.324C649.854 412.335 651.132 410.864 652.712 409.909C654.303 408.955 656.013 408.477 657.842 408.477C659.217 408.477 660.393 408.716 661.371 409.193C662.348 409.659 663.155 410.261 663.791 411C664.428 411.739 664.911 412.506 665.24 413.301H665.411V400.091H673.746V435H665.496V430.756H665.24C664.888 431.562 664.388 432.318 663.74 433.023C663.092 433.727 662.28 434.295 661.303 434.727C660.337 435.159 659.195 435.375 657.876 435.375ZM660.774 428.881C661.786 428.881 662.649 428.597 663.365 428.028C664.081 427.449 664.632 426.636 665.018 425.591C665.405 424.545 665.598 423.318 665.598 421.909C665.598 420.477 665.405 419.244 665.018 418.21C664.643 417.176 664.092 416.381 663.365 415.824C662.649 415.267 661.786 414.989 660.774 414.989C659.74 414.989 658.865 415.273 658.149 415.841C657.433 416.409 656.888 417.21 656.513 418.244C656.149 419.278 655.967 420.5 655.967 421.909C655.967 423.318 656.155 424.545 656.53 425.591C656.905 426.636 657.445 427.449 658.149 428.028C658.865 428.597 659.74 428.881 660.774 428.881Z" fill="#FA1E7D"/>
<path d="M15.642 435V400.091H24.0795V428.148H38.6023V435H15.642ZM55.2088 435.494C52.4702 435.494 50.1065 434.955 48.1179 433.875C46.1406 432.784 44.6179 431.233 43.5497 429.222C42.4929 427.199 41.9645 424.795 41.9645 422.011C41.9645 419.307 42.4986 416.943 43.5668 414.92C44.6349 412.886 46.1406 411.307 48.0838 410.182C50.027 409.045 52.3168 408.477 54.9531 408.477C56.8168 408.477 58.5213 408.767 60.0668 409.347C61.6122 409.926 62.9474 410.784 64.0724 411.92C65.1974 413.057 66.0724 414.46 66.6974 416.131C67.3224 417.79 67.6349 419.693 67.6349 421.841V423.92H44.8793V419.08H59.8793C59.8679 418.193 59.6577 417.403 59.2486 416.71C58.8395 416.017 58.277 415.477 57.5611 415.091C56.8565 414.693 56.044 414.494 55.1236 414.494C54.1918 414.494 53.3565 414.705 52.6179 415.125C51.8793 415.534 51.294 416.097 50.8622 416.812C50.4304 417.517 50.2031 418.318 50.1804 419.216V424.142C50.1804 425.21 50.3906 426.148 50.8111 426.955C51.2315 427.75 51.8281 428.369 52.6009 428.812C53.3736 429.256 54.294 429.477 55.3622 429.477C56.1009 429.477 56.7713 429.375 57.3736 429.17C57.9759 428.966 58.4929 428.665 58.9247 428.267C59.3565 427.869 59.6804 427.381 59.8963 426.801L67.5497 427.023C67.2315 428.739 66.5327 430.233 65.4531 431.506C64.3849 432.767 62.9815 433.75 61.2429 434.455C59.5043 435.148 57.4929 435.494 55.2088 435.494ZM86.6705 408.818V414.955H70.1534V408.818H86.6705ZM73.6136 402.545H81.9489V426.767C81.9489 427.278 82.0284 427.693 82.1875 428.011C82.358 428.318 82.6023 428.54 82.9205 428.676C83.2386 428.801 83.6193 428.864 84.0625 428.864C84.3807 428.864 84.7159 428.835 85.0682 428.778C85.4318 428.71 85.7045 428.653 85.8864 428.608L87.1477 434.625C86.75 434.739 86.1875 434.881 85.4602 435.051C84.7443 435.222 83.8864 435.33 82.8864 435.375C80.9318 435.466 79.2557 435.239 77.858 434.693C76.4716 434.136 75.4091 433.273 74.6705 432.102C73.9432 430.932 73.5909 429.46 73.6136 427.688V402.545ZM99.4972 400.091H108.923L116.304 414.699H116.611L123.991 400.091H133.418L120.651 423.341V435H112.264V423.341L99.4972 400.091ZM143.129 435.494C140.379 435.494 138.016 434.932 136.038 433.807C134.072 432.67 132.555 431.091 131.487 429.068C130.43 427.034 129.902 424.676 129.902 421.994C129.902 419.301 130.43 416.943 131.487 414.92C132.555 412.886 134.072 411.307 136.038 410.182C138.016 409.045 140.379 408.477 143.129 408.477C145.879 408.477 148.237 409.045 150.203 410.182C152.18 411.307 153.697 412.886 154.754 414.92C155.822 416.943 156.357 419.301 156.357 421.994C156.357 424.676 155.822 427.034 154.754 429.068C153.697 431.091 152.18 432.67 150.203 433.807C148.237 434.932 145.879 435.494 143.129 435.494ZM143.18 429.205C144.18 429.205 145.027 428.898 145.72 428.284C146.413 427.67 146.942 426.818 147.305 425.727C147.68 424.636 147.868 423.375 147.868 421.943C147.868 420.489 147.68 419.216 147.305 418.125C146.942 417.034 146.413 416.182 145.72 415.568C145.027 414.955 144.18 414.648 143.18 414.648C142.146 414.648 141.271 414.955 140.555 415.568C139.851 416.182 139.311 417.034 138.936 418.125C138.572 419.216 138.391 420.489 138.391 421.943C138.391 423.375 138.572 424.636 138.936 425.727C139.311 426.818 139.851 427.67 140.555 428.284C141.271 428.898 142.146 429.205 143.18 429.205ZM177.518 423.699V408.818H185.837V435H177.893V430.125H177.621C177.041 431.727 176.053 433 174.655 433.943C173.268 434.875 171.592 435.341 169.626 435.341C167.842 435.341 166.274 434.932 164.922 434.114C163.57 433.295 162.518 432.153 161.768 430.688C161.018 429.21 160.638 427.483 160.626 425.506V408.818H168.962V423.869C168.973 425.29 169.348 426.409 170.087 427.227C170.825 428.045 171.831 428.455 173.104 428.455C173.933 428.455 174.678 428.273 175.337 427.909C176.007 427.534 176.536 426.994 176.922 426.29C177.32 425.574 177.518 424.71 177.518 423.699ZM191.142 435V408.818H199.239V413.591H199.511C199.989 411.864 200.767 410.58 201.847 409.739C202.926 408.886 204.182 408.46 205.614 408.46C206 408.46 206.398 408.489 206.807 408.545C207.216 408.591 207.597 408.665 207.949 408.767V416.011C207.551 415.875 207.028 415.767 206.381 415.688C205.744 415.608 205.176 415.568 204.676 415.568C203.688 415.568 202.795 415.79 202 416.233C201.216 416.665 200.597 417.273 200.142 418.057C199.699 418.83 199.477 419.739 199.477 420.784V435H191.142ZM253.345 412.739H244.822C244.709 411.864 244.476 411.074 244.124 410.369C243.771 409.665 243.305 409.062 242.726 408.562C242.146 408.062 241.459 407.682 240.663 407.42C239.879 407.148 239.01 407.011 238.055 407.011C236.362 407.011 234.902 407.426 233.675 408.256C232.459 409.085 231.521 410.284 230.862 411.852C230.214 413.42 229.891 415.318 229.891 417.545C229.891 419.864 230.22 421.807 230.879 423.375C231.55 424.932 232.487 426.108 233.692 426.903C234.908 427.687 236.345 428.08 238.004 428.08C238.936 428.08 239.783 427.96 240.544 427.722C241.317 427.483 241.993 427.136 242.572 426.682C243.163 426.216 243.646 425.653 244.021 424.994C244.408 424.324 244.675 423.568 244.822 422.727L253.345 422.778C253.197 424.324 252.749 425.847 251.999 427.347C251.26 428.847 250.243 430.216 248.947 431.455C247.652 432.682 246.072 433.659 244.209 434.386C242.357 435.114 240.232 435.477 237.834 435.477C234.675 435.477 231.845 434.784 229.345 433.398C226.857 432 224.891 429.966 223.447 427.295C222.004 424.625 221.283 421.375 221.283 417.545C221.283 413.705 222.016 410.449 223.482 407.778C224.947 405.108 226.93 403.08 229.43 401.693C231.93 400.307 234.732 399.614 237.834 399.614C239.947 399.614 241.902 399.909 243.697 400.5C245.493 401.08 247.072 401.932 248.436 403.057C249.8 404.17 250.908 405.54 251.76 407.165C252.612 408.79 253.141 410.648 253.345 412.739ZM258.173 435V408.818H266.27V413.591H266.543C267.02 411.864 267.798 410.58 268.878 409.739C269.957 408.886 271.213 408.46 272.645 408.46C273.031 408.46 273.429 408.489 273.838 408.545C274.247 408.591 274.628 408.665 274.98 408.767V416.011C274.582 415.875 274.06 415.767 273.412 415.688C272.776 415.608 272.207 415.568 271.707 415.568C270.719 415.568 269.827 415.79 269.031 416.233C268.247 416.665 267.628 417.273 267.173 418.057C266.73 418.83 266.509 419.739 266.509 420.784V435H258.173ZM289.256 435.494C286.517 435.494 284.153 434.955 282.165 433.875C280.188 432.784 278.665 431.233 277.597 429.222C276.54 427.199 276.011 424.795 276.011 422.011C276.011 419.307 276.545 416.943 277.614 414.92C278.682 412.886 280.188 411.307 282.131 410.182C284.074 409.045 286.364 408.477 289 408.477C290.864 408.477 292.568 408.767 294.114 409.347C295.659 409.926 296.994 410.784 298.119 411.92C299.244 413.057 300.119 414.46 300.744 416.131C301.369 417.79 301.682 419.693 301.682 421.841V423.92H278.926V419.08H293.926C293.915 418.193 293.705 417.403 293.295 416.71C292.886 416.017 292.324 415.477 291.608 415.091C290.903 414.693 290.091 414.494 289.17 414.494C288.239 414.494 287.403 414.705 286.665 415.125C285.926 415.534 285.341 416.097 284.909 416.812C284.477 417.517 284.25 418.318 284.227 419.216V424.142C284.227 425.21 284.438 426.148 284.858 426.955C285.278 427.75 285.875 428.369 286.648 428.812C287.42 429.256 288.341 429.477 289.409 429.477C290.148 429.477 290.818 429.375 291.42 429.17C292.023 428.966 292.54 428.665 292.972 428.267C293.403 427.869 293.727 427.381 293.943 426.801L301.597 427.023C301.278 428.739 300.58 430.233 299.5 431.506C298.432 432.767 297.028 433.75 295.29 434.455C293.551 435.148 291.54 435.494 289.256 435.494ZM313.32 435.443C311.649 435.443 310.166 435.165 308.871 434.608C307.587 434.04 306.57 433.187 305.82 432.051C305.081 430.903 304.712 429.466 304.712 427.739C304.712 426.284 304.967 425.057 305.479 424.057C305.99 423.057 306.695 422.244 307.592 421.619C308.49 420.994 309.524 420.523 310.695 420.205C311.865 419.875 313.115 419.653 314.445 419.54C315.933 419.403 317.132 419.261 318.041 419.114C318.95 418.955 319.609 418.733 320.018 418.449C320.439 418.153 320.649 417.739 320.649 417.205V417.119C320.649 416.244 320.348 415.568 319.746 415.091C319.143 414.614 318.331 414.375 317.308 414.375C316.206 414.375 315.32 414.614 314.649 415.091C313.979 415.568 313.553 416.227 313.371 417.068L305.683 416.795C305.911 415.205 306.496 413.784 307.439 412.534C308.393 411.273 309.7 410.284 311.359 409.568C313.03 408.841 315.036 408.477 317.376 408.477C319.047 408.477 320.587 408.676 321.996 409.074C323.405 409.46 324.632 410.028 325.678 410.778C326.723 411.517 327.53 412.426 328.098 413.506C328.678 414.585 328.967 415.818 328.967 417.205V435H321.126V431.352H320.922C320.456 432.239 319.859 432.989 319.132 433.602C318.416 434.216 317.57 434.676 316.592 434.983C315.626 435.29 314.536 435.443 313.32 435.443ZM315.893 429.989C316.791 429.989 317.598 429.807 318.314 429.443C319.041 429.08 319.621 428.58 320.053 427.943C320.484 427.295 320.7 426.545 320.7 425.693V423.205C320.462 423.33 320.172 423.443 319.831 423.545C319.501 423.648 319.138 423.744 318.74 423.835C318.342 423.926 317.933 424.006 317.513 424.074C317.092 424.142 316.689 424.205 316.303 424.261C315.518 424.386 314.848 424.58 314.291 424.841C313.746 425.102 313.325 425.443 313.03 425.864C312.746 426.273 312.604 426.761 312.604 427.33C312.604 428.193 312.911 428.852 313.524 429.307C314.149 429.761 314.939 429.989 315.893 429.989ZM348.842 408.818V414.955H332.325V408.818H348.842ZM335.786 402.545H344.121V426.767C344.121 427.278 344.2 427.693 344.359 428.011C344.53 428.318 344.774 428.54 345.092 428.676C345.411 428.801 345.791 428.864 346.234 428.864C346.553 428.864 346.888 428.835 347.24 428.778C347.604 428.71 347.876 428.653 348.058 428.608L349.32 434.625C348.922 434.739 348.359 434.881 347.632 435.051C346.916 435.222 346.058 435.33 345.058 435.375C343.104 435.466 341.428 435.239 340.03 434.693C338.643 434.136 337.581 433.273 336.842 432.102C336.115 430.932 335.763 429.46 335.786 427.688V402.545ZM353.095 435V408.818H361.43V435H353.095ZM357.271 405.767C356.101 405.767 355.095 405.381 354.254 404.608C353.413 403.824 352.993 402.881 352.993 401.778C352.993 400.687 353.413 399.756 354.254 398.983C355.095 398.199 356.101 397.807 357.271 397.807C358.453 397.807 359.459 398.199 360.288 398.983C361.129 399.756 361.55 400.687 361.55 401.778C361.55 402.881 361.129 403.824 360.288 404.608C359.459 405.381 358.453 405.767 357.271 405.767ZM392.134 408.818L383.151 435H373.605L364.639 408.818H373.418L378.241 426.852H378.514L383.355 408.818H392.134ZM395.33 435V408.818H403.665V435H395.33ZM399.506 405.767C398.335 405.767 397.33 405.381 396.489 404.608C395.648 403.824 395.227 402.881 395.227 401.778C395.227 400.687 395.648 399.756 396.489 398.983C397.33 398.199 398.335 397.807 399.506 397.807C400.688 397.807 401.693 398.199 402.523 398.983C403.364 399.756 403.784 400.687 403.784 401.778C403.784 402.881 403.364 403.824 402.523 404.608C401.693 405.381 400.688 405.767 399.506 405.767ZM423.749 408.818V414.955H407.232V408.818H423.749ZM410.692 402.545H419.027V426.767C419.027 427.278 419.107 427.693 419.266 428.011C419.436 428.318 419.68 428.54 419.999 428.676C420.317 428.801 420.697 428.864 421.141 428.864C421.459 428.864 421.794 428.835 422.146 428.778C422.51 428.71 422.783 428.653 422.964 428.608L424.226 434.625C423.828 434.739 423.266 434.881 422.538 435.051C421.822 435.222 420.964 435.33 419.964 435.375C418.01 435.466 416.334 435.239 414.936 434.693C413.55 434.136 412.487 433.273 411.749 432.102C411.021 430.932 410.669 429.46 410.692 427.688V402.545ZM433.098 444.818C432.098 444.818 431.155 444.739 430.268 444.58C429.382 444.432 428.621 444.233 427.984 443.983L429.825 437.932C430.643 438.205 431.382 438.364 432.041 438.409C432.712 438.455 433.286 438.347 433.763 438.085C434.251 437.835 434.626 437.386 434.888 436.739L435.212 435.955L425.905 408.818H434.632L439.456 427.5H439.729L444.621 408.818H453.399L443.53 437.506C443.053 438.938 442.376 440.199 441.501 441.29C440.638 442.392 439.518 443.256 438.143 443.881C436.78 444.506 435.098 444.818 433.098 444.818ZM466.908 435V400.091H481.328C483.942 400.091 486.197 400.562 488.095 401.506C490.004 402.437 491.476 403.778 492.51 405.528C493.544 407.267 494.061 409.33 494.061 411.716C494.061 414.136 493.533 416.193 492.476 417.886C491.419 419.568 489.919 420.852 487.976 421.739C486.033 422.614 483.732 423.051 481.072 423.051H471.953V416.403H479.504C480.777 416.403 481.839 416.239 482.692 415.909C483.555 415.568 484.209 415.057 484.652 414.375C485.095 413.682 485.317 412.795 485.317 411.716C485.317 410.636 485.095 409.744 484.652 409.04C484.209 408.324 483.555 407.79 482.692 407.438C481.828 407.074 480.766 406.892 479.504 406.892H475.345V435H466.908ZM486.561 419.045L495.254 435H486.05L477.527 419.045H486.561ZM515.581 423.699V408.818H523.899V435H515.956V430.125H515.683C515.104 431.727 514.115 433 512.717 433.943C511.331 434.875 509.655 435.341 507.689 435.341C505.905 435.341 504.337 434.932 502.984 434.114C501.632 433.295 500.581 432.153 499.831 430.688C499.081 429.21 498.7 427.483 498.689 425.506V408.818H507.024V423.869C507.036 425.29 507.411 426.409 508.149 427.227C508.888 428.045 509.893 428.455 511.166 428.455C511.996 428.455 512.74 428.273 513.399 427.909C514.07 427.534 514.598 426.994 514.984 426.29C515.382 425.574 515.581 424.71 515.581 423.699ZM537.54 420.068V435H529.205V408.818H537.131V413.625H537.42C538 412.023 538.989 410.767 540.386 409.858C541.784 408.938 543.449 408.477 545.381 408.477C547.222 408.477 548.818 408.892 550.17 409.722C551.534 410.54 552.591 411.687 553.341 413.165C554.102 414.631 554.477 416.347 554.466 418.312V435H546.131V419.949C546.142 418.494 545.773 417.358 545.023 416.54C544.284 415.722 543.256 415.312 541.938 415.312C541.062 415.312 540.29 415.506 539.619 415.892C538.96 416.267 538.449 416.807 538.085 417.511C537.733 418.216 537.551 419.068 537.54 420.068ZM578.308 435L568.149 400.091H577.473L582.74 422.966H583.03L589.047 400.091H596.649L602.666 423.017H602.956L608.24 400.091H617.547L607.405 435H599.274L592.984 413.83H592.712L586.422 435H578.308ZM621.033 435V408.818H629.368V435H621.033ZM625.209 405.767C624.038 405.767 623.033 405.381 622.192 404.608C621.351 403.824 620.93 402.881 620.93 401.778C620.93 400.687 621.351 399.756 622.192 398.983C623.033 398.199 624.038 397.807 625.209 397.807C626.391 397.807 627.396 398.199 628.226 398.983C629.067 399.756 629.487 400.687 629.487 401.778C629.487 402.881 629.067 403.824 628.226 404.608C627.396 405.381 626.391 405.767 625.209 405.767ZM643.009 400.091V435H634.673V400.091H643.009ZM657.876 435.375C655.945 435.375 654.189 434.875 652.609 433.875C651.03 432.875 649.768 431.375 648.825 429.375C647.882 427.375 647.411 424.892 647.411 421.926C647.411 418.847 647.899 416.312 648.876 414.324C649.854 412.335 651.132 410.864 652.712 409.909C654.303 408.955 656.013 408.477 657.842 408.477C659.217 408.477 660.393 408.716 661.371 409.193C662.348 409.659 663.155 410.261 663.791 411C664.428 411.739 664.911 412.506 665.24 413.301H665.411V400.091H673.746V435H665.496V430.756H665.24C664.888 431.562 664.388 432.318 663.74 433.023C663.092 433.727 662.28 434.295 661.303 434.727C660.337 435.159 659.195 435.375 657.876 435.375ZM660.774 428.881C661.786 428.881 662.649 428.597 663.365 428.028C664.081 427.449 664.632 426.636 665.018 425.591C665.405 424.545 665.598 423.318 665.598 421.909C665.598 420.477 665.405 419.244 665.018 418.21C664.643 417.176 664.092 416.381 663.365 415.824C662.649 415.267 661.786 414.989 660.774 414.989C659.74 414.989 658.865 415.273 658.149 415.841C657.433 416.409 656.888 417.21 656.513 418.244C656.149 419.278 655.967 420.5 655.967 421.909C655.967 423.318 656.155 424.545 656.53 425.591C656.905 426.636 657.445 427.449 658.149 428.028C658.865 428.597 659.74 428.881 660.774 428.881Z" fill="#778DAA"/>
<path d="M688.818 400.091L688.034 424.312H681.028L680.244 400.091H688.818ZM684.523 435.494C683.307 435.494 682.261 435.062 681.386 434.199C680.523 433.335 680.091 432.29 680.091 431.062C680.091 429.858 680.523 428.83 681.386 427.977C682.261 427.114 683.307 426.682 684.523 426.682C685.693 426.682 686.722 427.114 687.608 427.977C688.506 428.83 688.955 429.858 688.955 431.062C688.955 431.881 688.744 432.625 688.324 433.295C687.915 433.966 687.375 434.5 686.705 434.898C686.045 435.295 685.318 435.494 684.523 435.494Z" fill="#778DAA"/>
<path d="M1311 79.642L1345.91 79.642V88.0795H1317.85V102.602H1311V79.642ZM1311 106.97H1337.18V115.305H1311V106.97ZM1340.23 111.146C1340.23 109.976 1340.62 108.97 1341.39 108.129C1342.18 107.288 1343.12 106.868 1344.22 106.868C1345.31 106.868 1346.24 107.288 1347.02 108.129C1347.8 108.97 1348.19 109.976 1348.19 111.146C1348.19 112.328 1347.8 113.334 1347.02 114.163C1346.24 115.004 1345.31 115.425 1344.22 115.425C1343.12 115.425 1342.18 115.004 1341.39 114.163C1340.62 113.334 1340.23 112.328 1340.23 111.146ZM1317.87 128.128L1327.81 128.162V129.321L1337.18 136.685V146.128L1323.75 135.185V132.986L1317.87 128.128ZM1311 120.611H1345.91V128.946H1311V120.611ZM1311 136.872L1321.88 130.02L1327.79 135.509L1311 146.503V136.872ZM1310.51 160.271C1310.51 157.533 1311.05 155.169 1312.12 153.18C1313.22 151.203 1314.77 149.68 1316.78 148.612C1318.8 147.555 1321.2 147.027 1323.99 147.027C1326.69 147.027 1329.06 147.561 1331.08 148.629C1333.11 149.697 1334.69 151.203 1335.82 153.146C1336.95 155.089 1337.52 157.379 1337.52 160.016C1337.52 161.879 1337.23 163.584 1336.65 165.129C1336.07 166.675 1335.22 168.01 1334.08 169.135C1332.94 170.26 1331.54 171.135 1329.87 171.76C1328.21 172.385 1326.31 172.697 1324.16 172.697H1322.08V149.942H1326.92V164.942C1327.81 164.93 1328.6 164.72 1329.29 164.311C1329.98 163.902 1330.52 163.339 1330.91 162.624C1331.31 161.919 1331.51 161.107 1331.51 160.186C1331.51 159.254 1331.3 158.419 1330.88 157.68C1330.47 156.942 1329.9 156.357 1329.19 155.925C1328.48 155.493 1327.68 155.266 1326.78 155.243H1321.86C1320.79 155.243 1319.85 155.453 1319.05 155.874C1318.25 156.294 1317.63 156.891 1317.19 157.663C1316.74 158.436 1316.52 159.357 1316.52 160.425C1316.52 161.163 1316.63 161.834 1316.83 162.436C1317.03 163.038 1317.34 163.555 1317.73 163.987C1318.13 164.419 1318.62 164.743 1319.2 164.959L1318.98 172.612C1317.26 172.294 1315.77 171.595 1314.49 170.516C1313.23 169.447 1312.25 168.044 1311.55 166.305C1310.85 164.567 1310.51 162.555 1310.51 160.271Z" fill="white"/>
<defs>
<linearGradient id="paint0_linear_135_824" x1="655.5" y1="0" x2="655.5" y2="484" gradientUnits="userSpaceOnUse">
<stop offset="0.140496" stop-color="#FAC406"/>
<stop offset="0.475" stop-color="#FA7B06"/>
<stop offset="0.838843" stop-color="#881DF4"/>
</linearGradient>
</defs>
</svg>